M48
; DRILL file {KiCad 9.0.7} date 2026-04-01T19:47:22-0500
; FORMAT={-:-/ absolute / metric / decimal}
; #@! TF.CreationDate,2026-04-01T19:47:22-05:00
; #@! TF.GenerationSoftware,Kicad,Pcbnew,9.0.7
; #@! TF.FileFunction,Plated,1,2,PTH
FMAT,2
METRIC
; #@! TA.AperFunction,Plated,PTH,ViaDrill
T1C0.300
; #@! TA.AperFunction,Plated,PTH,ComponentDrill
T2C0.787
; #@! TA.AperFunction,Plated,PTH,ComponentDrill
T3C0.800
; #@! TA.AperFunction,Plated,PTH,ComponentDrill
T4C0.850
; #@! TA.AperFunction,Plated,PTH,ComponentDrill
T5C0.900
; #@! TA.AperFunction,Plated,PTH,ComponentDrill
T6C1.000
%
G90
G05
T1
X116.5Y-96.0
X117.75Y-76.25
X118.5Y-83.5
X127.0Y-92.25
X128.75Y-86.0
X129.75Y-89.5
X130.75Y-92.75
X132.0Y-105.25
X143.0Y-103.75
X165.75Y-112.5
T2
X125.26Y-79.75
X125.26Y-87.37
X127.8Y-79.75
X127.8Y-87.37
X130.34Y-79.75
X130.34Y-87.37
X132.88Y-79.75
X132.88Y-87.37
X135.42Y-79.75
X135.42Y-87.37
X137.96Y-79.75
X137.96Y-87.37
X140.5Y-79.75
X140.5Y-87.37
X143.04Y-79.75
X143.04Y-87.37
T3
X126.19Y-95.695
X126.19Y-103.315
X128.73Y-95.695
X128.73Y-103.315
X131.27Y-95.695
X131.27Y-103.315
X133.81Y-95.695
X133.81Y-103.315
X136.75Y-107.69
X136.75Y-115.31
X148.0Y-83.44
X148.0Y-91.06
X152.25Y-98.25
X154.25Y-98.25
T4
X140.92Y-98.5
X143.46Y-98.5
X146.0Y-98.5
T5
X109.71Y-98.0
X112.25Y-98.0
X124.21Y-75.0
X126.75Y-75.0
X127.21Y-122.75
X129.75Y-122.75
X148.21Y-143.0
X150.75Y-143.0
X170.21Y-121.0
X172.75Y-121.0
X174.73Y-74.0
X177.27Y-74.0
X188.96Y-97.25
X191.5Y-97.25
T6
X126.0Y-107.5
X131.0Y-107.5
X144.75Y-108.75
X144.75Y-111.29
X154.5Y-85.71
X154.5Y-88.25
M30
