%TF.GenerationSoftware,KiCad,Pcbnew,9.0.7*%
%TF.CreationDate,2026-04-01T19:48:32-05:00*%
%TF.ProjectId,sunny-blinnky-board,73756e6e-792d-4626-9c69-6e6e6b792d62,rev?*%
%TF.SameCoordinates,Original*%
%TF.FileFunction,Legend,Top*%
%TF.FilePolarity,Positive*%
%FSLAX46Y46*%
G04 Gerber Fmt 4.6, Leading zero omitted, Abs format (unit mm)*
G04 Created by KiCad (PCBNEW 9.0.7) date 2026-04-01 19:48:32*
%MOMM*%
%LPD*%
G01*
G04 APERTURE LIST*
%ADD10C,0.100000*%
%ADD11C,0.150000*%
%ADD12C,0.120000*%
%ADD13C,0.000000*%
G04 APERTURE END LIST*
D10*
X142803884Y-125122419D02*
X142803884Y-124455752D01*
X142803884Y-124122419D02*
X142756265Y-124170038D01*
X142756265Y-124170038D02*
X142803884Y-124217657D01*
X142803884Y-124217657D02*
X142851503Y-124170038D01*
X142851503Y-124170038D02*
X142803884Y-124122419D01*
X142803884Y-124122419D02*
X142803884Y-124217657D01*
X144184836Y-125122419D02*
X144089598Y-125074800D01*
X144089598Y-125074800D02*
X144041979Y-124979561D01*
X144041979Y-124979561D02*
X144041979Y-124122419D01*
X144708646Y-125122419D02*
X144613408Y-125074800D01*
X144613408Y-125074800D02*
X144565789Y-125027180D01*
X144565789Y-125027180D02*
X144518170Y-124931942D01*
X144518170Y-124931942D02*
X144518170Y-124646228D01*
X144518170Y-124646228D02*
X144565789Y-124550990D01*
X144565789Y-124550990D02*
X144613408Y-124503371D01*
X144613408Y-124503371D02*
X144708646Y-124455752D01*
X144708646Y-124455752D02*
X144851503Y-124455752D01*
X144851503Y-124455752D02*
X144946741Y-124503371D01*
X144946741Y-124503371D02*
X144994360Y-124550990D01*
X144994360Y-124550990D02*
X145041979Y-124646228D01*
X145041979Y-124646228D02*
X145041979Y-124931942D01*
X145041979Y-124931942D02*
X144994360Y-125027180D01*
X144994360Y-125027180D02*
X144946741Y-125074800D01*
X144946741Y-125074800D02*
X144851503Y-125122419D01*
X144851503Y-125122419D02*
X144708646Y-125122419D01*
X145375313Y-124455752D02*
X145613408Y-125122419D01*
X145613408Y-125122419D02*
X145851503Y-124455752D01*
X146613408Y-125074800D02*
X146518170Y-125122419D01*
X146518170Y-125122419D02*
X146327694Y-125122419D01*
X146327694Y-125122419D02*
X146232456Y-125074800D01*
X146232456Y-125074800D02*
X146184837Y-124979561D01*
X146184837Y-124979561D02*
X146184837Y-124598609D01*
X146184837Y-124598609D02*
X146232456Y-124503371D01*
X146232456Y-124503371D02*
X146327694Y-124455752D01*
X146327694Y-124455752D02*
X146518170Y-124455752D01*
X146518170Y-124455752D02*
X146613408Y-124503371D01*
X146613408Y-124503371D02*
X146661027Y-124598609D01*
X146661027Y-124598609D02*
X146661027Y-124693847D01*
X146661027Y-124693847D02*
X146184837Y-124789085D01*
X148280075Y-124455752D02*
X148280075Y-125122419D01*
X147851504Y-124455752D02*
X147851504Y-124979561D01*
X147851504Y-124979561D02*
X147899123Y-125074800D01*
X147899123Y-125074800D02*
X147994361Y-125122419D01*
X147994361Y-125122419D02*
X148137218Y-125122419D01*
X148137218Y-125122419D02*
X148232456Y-125074800D01*
X148232456Y-125074800D02*
X148280075Y-125027180D01*
X149470552Y-125074800D02*
X149565790Y-125122419D01*
X149565790Y-125122419D02*
X149756266Y-125122419D01*
X149756266Y-125122419D02*
X149851504Y-125074800D01*
X149851504Y-125074800D02*
X149899123Y-124979561D01*
X149899123Y-124979561D02*
X149899123Y-124931942D01*
X149899123Y-124931942D02*
X149851504Y-124836704D01*
X149851504Y-124836704D02*
X149756266Y-124789085D01*
X149756266Y-124789085D02*
X149613409Y-124789085D01*
X149613409Y-124789085D02*
X149518171Y-124741466D01*
X149518171Y-124741466D02*
X149470552Y-124646228D01*
X149470552Y-124646228D02*
X149470552Y-124598609D01*
X149470552Y-124598609D02*
X149518171Y-124503371D01*
X149518171Y-124503371D02*
X149613409Y-124455752D01*
X149613409Y-124455752D02*
X149756266Y-124455752D01*
X149756266Y-124455752D02*
X149851504Y-124503371D01*
X150470552Y-125122419D02*
X150375314Y-125074800D01*
X150375314Y-125074800D02*
X150327695Y-125027180D01*
X150327695Y-125027180D02*
X150280076Y-124931942D01*
X150280076Y-124931942D02*
X150280076Y-124646228D01*
X150280076Y-124646228D02*
X150327695Y-124550990D01*
X150327695Y-124550990D02*
X150375314Y-124503371D01*
X150375314Y-124503371D02*
X150470552Y-124455752D01*
X150470552Y-124455752D02*
X150613409Y-124455752D01*
X150613409Y-124455752D02*
X150708647Y-124503371D01*
X150708647Y-124503371D02*
X150756266Y-124550990D01*
X150756266Y-124550990D02*
X150803885Y-124646228D01*
X150803885Y-124646228D02*
X150803885Y-124931942D01*
X150803885Y-124931942D02*
X150756266Y-125027180D01*
X150756266Y-125027180D02*
X150708647Y-125074800D01*
X150708647Y-125074800D02*
X150613409Y-125122419D01*
X150613409Y-125122419D02*
X150470552Y-125122419D01*
X151994362Y-125122419D02*
X151994362Y-124455752D01*
X151994362Y-124550990D02*
X152041981Y-124503371D01*
X152041981Y-124503371D02*
X152137219Y-124455752D01*
X152137219Y-124455752D02*
X152280076Y-124455752D01*
X152280076Y-124455752D02*
X152375314Y-124503371D01*
X152375314Y-124503371D02*
X152422933Y-124598609D01*
X152422933Y-124598609D02*
X152422933Y-125122419D01*
X152422933Y-124598609D02*
X152470552Y-124503371D01*
X152470552Y-124503371D02*
X152565790Y-124455752D01*
X152565790Y-124455752D02*
X152708647Y-124455752D01*
X152708647Y-124455752D02*
X152803886Y-124503371D01*
X152803886Y-124503371D02*
X152851505Y-124598609D01*
X152851505Y-124598609D02*
X152851505Y-125122419D01*
X153756266Y-124455752D02*
X153756266Y-125122419D01*
X153327695Y-124455752D02*
X153327695Y-124979561D01*
X153327695Y-124979561D02*
X153375314Y-125074800D01*
X153375314Y-125074800D02*
X153470552Y-125122419D01*
X153470552Y-125122419D02*
X153613409Y-125122419D01*
X153613409Y-125122419D02*
X153708647Y-125074800D01*
X153708647Y-125074800D02*
X153756266Y-125027180D01*
X154661028Y-125074800D02*
X154565790Y-125122419D01*
X154565790Y-125122419D02*
X154375314Y-125122419D01*
X154375314Y-125122419D02*
X154280076Y-125074800D01*
X154280076Y-125074800D02*
X154232457Y-125027180D01*
X154232457Y-125027180D02*
X154184838Y-124931942D01*
X154184838Y-124931942D02*
X154184838Y-124646228D01*
X154184838Y-124646228D02*
X154232457Y-124550990D01*
X154232457Y-124550990D02*
X154280076Y-124503371D01*
X154280076Y-124503371D02*
X154375314Y-124455752D01*
X154375314Y-124455752D02*
X154565790Y-124455752D01*
X154565790Y-124455752D02*
X154661028Y-124503371D01*
X155089600Y-125122419D02*
X155089600Y-124122419D01*
X155518171Y-125122419D02*
X155518171Y-124598609D01*
X155518171Y-124598609D02*
X155470552Y-124503371D01*
X155470552Y-124503371D02*
X155375314Y-124455752D01*
X155375314Y-124455752D02*
X155232457Y-124455752D01*
X155232457Y-124455752D02*
X155137219Y-124503371D01*
X155137219Y-124503371D02*
X155089600Y-124550990D01*
X156756267Y-125027180D02*
X156803886Y-125074800D01*
X156803886Y-125074800D02*
X156756267Y-125122419D01*
X156756267Y-125122419D02*
X156708648Y-125074800D01*
X156708648Y-125074800D02*
X156756267Y-125027180D01*
X156756267Y-125027180D02*
X156756267Y-125122419D01*
X156756267Y-124503371D02*
X156803886Y-124550990D01*
X156803886Y-124550990D02*
X156756267Y-124598609D01*
X156756267Y-124598609D02*
X156708648Y-124550990D01*
X156708648Y-124550990D02*
X156756267Y-124503371D01*
X156756267Y-124503371D02*
X156756267Y-124598609D01*
X157232457Y-125122419D02*
X157232457Y-124122419D01*
X157232457Y-124122419D02*
X157470552Y-124122419D01*
X157470552Y-124122419D02*
X157613409Y-124170038D01*
X157613409Y-124170038D02*
X157708647Y-124265276D01*
X157708647Y-124265276D02*
X157756266Y-124360514D01*
X157756266Y-124360514D02*
X157803885Y-124550990D01*
X157803885Y-124550990D02*
X157803885Y-124693847D01*
X157803885Y-124693847D02*
X157756266Y-124884323D01*
X157756266Y-124884323D02*
X157708647Y-124979561D01*
X157708647Y-124979561D02*
X157613409Y-125074800D01*
X157613409Y-125074800D02*
X157470552Y-125122419D01*
X157470552Y-125122419D02*
X157232457Y-125122419D01*
D11*
X154166666Y-82784819D02*
X154166666Y-83499104D01*
X154166666Y-83499104D02*
X154119047Y-83641961D01*
X154119047Y-83641961D02*
X154023809Y-83737200D01*
X154023809Y-83737200D02*
X153880952Y-83784819D01*
X153880952Y-83784819D02*
X153785714Y-83784819D01*
X154595238Y-82880057D02*
X154642857Y-82832438D01*
X154642857Y-82832438D02*
X154738095Y-82784819D01*
X154738095Y-82784819D02*
X154976190Y-82784819D01*
X154976190Y-82784819D02*
X155071428Y-82832438D01*
X155071428Y-82832438D02*
X155119047Y-82880057D01*
X155119047Y-82880057D02*
X155166666Y-82975295D01*
X155166666Y-82975295D02*
X155166666Y-83070533D01*
X155166666Y-83070533D02*
X155119047Y-83213390D01*
X155119047Y-83213390D02*
X154547619Y-83784819D01*
X154547619Y-83784819D02*
X155166666Y-83784819D01*
X148741905Y-140494819D02*
X148741905Y-139494819D01*
X148741905Y-139494819D02*
X148980000Y-139494819D01*
X148980000Y-139494819D02*
X149122857Y-139542438D01*
X149122857Y-139542438D02*
X149218095Y-139637676D01*
X149218095Y-139637676D02*
X149265714Y-139732914D01*
X149265714Y-139732914D02*
X149313333Y-139923390D01*
X149313333Y-139923390D02*
X149313333Y-140066247D01*
X149313333Y-140066247D02*
X149265714Y-140256723D01*
X149265714Y-140256723D02*
X149218095Y-140351961D01*
X149218095Y-140351961D02*
X149122857Y-140447200D01*
X149122857Y-140447200D02*
X148980000Y-140494819D01*
X148980000Y-140494819D02*
X148741905Y-140494819D01*
X150170476Y-139828152D02*
X150170476Y-140494819D01*
X149932381Y-139447200D02*
X149694286Y-140161485D01*
X149694286Y-140161485D02*
X150313333Y-140161485D01*
X135594819Y-100266904D02*
X136404342Y-100266904D01*
X136404342Y-100266904D02*
X136499580Y-100219285D01*
X136499580Y-100219285D02*
X136547200Y-100171666D01*
X136547200Y-100171666D02*
X136594819Y-100076428D01*
X136594819Y-100076428D02*
X136594819Y-99885952D01*
X136594819Y-99885952D02*
X136547200Y-99790714D01*
X136547200Y-99790714D02*
X136499580Y-99743095D01*
X136499580Y-99743095D02*
X136404342Y-99695476D01*
X136404342Y-99695476D02*
X135594819Y-99695476D01*
X136594819Y-98695476D02*
X136594819Y-99266904D01*
X136594819Y-98981190D02*
X135594819Y-98981190D01*
X135594819Y-98981190D02*
X135737676Y-99076428D01*
X135737676Y-99076428D02*
X135832914Y-99171666D01*
X135832914Y-99171666D02*
X135880533Y-99266904D01*
X189491905Y-94744819D02*
X189491905Y-93744819D01*
X189491905Y-93744819D02*
X189730000Y-93744819D01*
X189730000Y-93744819D02*
X189872857Y-93792438D01*
X189872857Y-93792438D02*
X189968095Y-93887676D01*
X189968095Y-93887676D02*
X190015714Y-93982914D01*
X190015714Y-93982914D02*
X190063333Y-94173390D01*
X190063333Y-94173390D02*
X190063333Y-94316247D01*
X190063333Y-94316247D02*
X190015714Y-94506723D01*
X190015714Y-94506723D02*
X189968095Y-94601961D01*
X189968095Y-94601961D02*
X189872857Y-94697200D01*
X189872857Y-94697200D02*
X189730000Y-94744819D01*
X189730000Y-94744819D02*
X189491905Y-94744819D01*
X190920476Y-93744819D02*
X190730000Y-93744819D01*
X190730000Y-93744819D02*
X190634762Y-93792438D01*
X190634762Y-93792438D02*
X190587143Y-93840057D01*
X190587143Y-93840057D02*
X190491905Y-93982914D01*
X190491905Y-93982914D02*
X190444286Y-94173390D01*
X190444286Y-94173390D02*
X190444286Y-94554342D01*
X190444286Y-94554342D02*
X190491905Y-94649580D01*
X190491905Y-94649580D02*
X190539524Y-94697200D01*
X190539524Y-94697200D02*
X190634762Y-94744819D01*
X190634762Y-94744819D02*
X190825238Y-94744819D01*
X190825238Y-94744819D02*
X190920476Y-94697200D01*
X190920476Y-94697200D02*
X190968095Y-94649580D01*
X190968095Y-94649580D02*
X191015714Y-94554342D01*
X191015714Y-94554342D02*
X191015714Y-94316247D01*
X191015714Y-94316247D02*
X190968095Y-94221009D01*
X190968095Y-94221009D02*
X190920476Y-94173390D01*
X190920476Y-94173390D02*
X190825238Y-94125771D01*
X190825238Y-94125771D02*
X190634762Y-94125771D01*
X190634762Y-94125771D02*
X190539524Y-94173390D01*
X190539524Y-94173390D02*
X190491905Y-94221009D01*
X190491905Y-94221009D02*
X190444286Y-94316247D01*
X170741905Y-118494819D02*
X170741905Y-117494819D01*
X170741905Y-117494819D02*
X170980000Y-117494819D01*
X170980000Y-117494819D02*
X171122857Y-117542438D01*
X171122857Y-117542438D02*
X171218095Y-117637676D01*
X171218095Y-117637676D02*
X171265714Y-117732914D01*
X171265714Y-117732914D02*
X171313333Y-117923390D01*
X171313333Y-117923390D02*
X171313333Y-118066247D01*
X171313333Y-118066247D02*
X171265714Y-118256723D01*
X171265714Y-118256723D02*
X171218095Y-118351961D01*
X171218095Y-118351961D02*
X171122857Y-118447200D01*
X171122857Y-118447200D02*
X170980000Y-118494819D01*
X170980000Y-118494819D02*
X170741905Y-118494819D01*
X172218095Y-117494819D02*
X171741905Y-117494819D01*
X171741905Y-117494819D02*
X171694286Y-117971009D01*
X171694286Y-117971009D02*
X171741905Y-117923390D01*
X171741905Y-117923390D02*
X171837143Y-117875771D01*
X171837143Y-117875771D02*
X172075238Y-117875771D01*
X172075238Y-117875771D02*
X172170476Y-117923390D01*
X172170476Y-117923390D02*
X172218095Y-117971009D01*
X172218095Y-117971009D02*
X172265714Y-118066247D01*
X172265714Y-118066247D02*
X172265714Y-118304342D01*
X172265714Y-118304342D02*
X172218095Y-118399580D01*
X172218095Y-118399580D02*
X172170476Y-118447200D01*
X172170476Y-118447200D02*
X172075238Y-118494819D01*
X172075238Y-118494819D02*
X171837143Y-118494819D01*
X171837143Y-118494819D02*
X171741905Y-118447200D01*
X171741905Y-118447200D02*
X171694286Y-118399580D01*
X124741905Y-72494819D02*
X124741905Y-71494819D01*
X124741905Y-71494819D02*
X124980000Y-71494819D01*
X124980000Y-71494819D02*
X125122857Y-71542438D01*
X125122857Y-71542438D02*
X125218095Y-71637676D01*
X125218095Y-71637676D02*
X125265714Y-71732914D01*
X125265714Y-71732914D02*
X125313333Y-71923390D01*
X125313333Y-71923390D02*
X125313333Y-72066247D01*
X125313333Y-72066247D02*
X125265714Y-72256723D01*
X125265714Y-72256723D02*
X125218095Y-72351961D01*
X125218095Y-72351961D02*
X125122857Y-72447200D01*
X125122857Y-72447200D02*
X124980000Y-72494819D01*
X124980000Y-72494819D02*
X124741905Y-72494819D01*
X125694286Y-71590057D02*
X125741905Y-71542438D01*
X125741905Y-71542438D02*
X125837143Y-71494819D01*
X125837143Y-71494819D02*
X126075238Y-71494819D01*
X126075238Y-71494819D02*
X126170476Y-71542438D01*
X126170476Y-71542438D02*
X126218095Y-71590057D01*
X126218095Y-71590057D02*
X126265714Y-71685295D01*
X126265714Y-71685295D02*
X126265714Y-71780533D01*
X126265714Y-71780533D02*
X126218095Y-71923390D01*
X126218095Y-71923390D02*
X125646667Y-72494819D01*
X125646667Y-72494819D02*
X126265714Y-72494819D01*
X134834819Y-111666666D02*
X134358628Y-111999999D01*
X134834819Y-112238094D02*
X133834819Y-112238094D01*
X133834819Y-112238094D02*
X133834819Y-111857142D01*
X133834819Y-111857142D02*
X133882438Y-111761904D01*
X133882438Y-111761904D02*
X133930057Y-111714285D01*
X133930057Y-111714285D02*
X134025295Y-111666666D01*
X134025295Y-111666666D02*
X134168152Y-111666666D01*
X134168152Y-111666666D02*
X134263390Y-111714285D01*
X134263390Y-111714285D02*
X134311009Y-111761904D01*
X134311009Y-111761904D02*
X134358628Y-111857142D01*
X134358628Y-111857142D02*
X134358628Y-112238094D01*
X133930057Y-111285713D02*
X133882438Y-111238094D01*
X133882438Y-111238094D02*
X133834819Y-111142856D01*
X133834819Y-111142856D02*
X133834819Y-110904761D01*
X133834819Y-110904761D02*
X133882438Y-110809523D01*
X133882438Y-110809523D02*
X133930057Y-110761904D01*
X133930057Y-110761904D02*
X134025295Y-110714285D01*
X134025295Y-110714285D02*
X134120533Y-110714285D01*
X134120533Y-110714285D02*
X134263390Y-110761904D01*
X134263390Y-110761904D02*
X134834819Y-111333332D01*
X134834819Y-111333332D02*
X134834819Y-110714285D01*
X144416666Y-105824819D02*
X144416666Y-106539104D01*
X144416666Y-106539104D02*
X144369047Y-106681961D01*
X144369047Y-106681961D02*
X144273809Y-106777200D01*
X144273809Y-106777200D02*
X144130952Y-106824819D01*
X144130952Y-106824819D02*
X144035714Y-106824819D01*
X145416666Y-106824819D02*
X144845238Y-106824819D01*
X145130952Y-106824819D02*
X145130952Y-105824819D01*
X145130952Y-105824819D02*
X145035714Y-105967676D01*
X145035714Y-105967676D02*
X144940476Y-106062914D01*
X144940476Y-106062914D02*
X144845238Y-106110533D01*
X127741905Y-120244819D02*
X127741905Y-119244819D01*
X127741905Y-119244819D02*
X127980000Y-119244819D01*
X127980000Y-119244819D02*
X128122857Y-119292438D01*
X128122857Y-119292438D02*
X128218095Y-119387676D01*
X128218095Y-119387676D02*
X128265714Y-119482914D01*
X128265714Y-119482914D02*
X128313333Y-119673390D01*
X128313333Y-119673390D02*
X128313333Y-119816247D01*
X128313333Y-119816247D02*
X128265714Y-120006723D01*
X128265714Y-120006723D02*
X128218095Y-120101961D01*
X128218095Y-120101961D02*
X128122857Y-120197200D01*
X128122857Y-120197200D02*
X127980000Y-120244819D01*
X127980000Y-120244819D02*
X127741905Y-120244819D01*
X129265714Y-120244819D02*
X128694286Y-120244819D01*
X128980000Y-120244819D02*
X128980000Y-119244819D01*
X128980000Y-119244819D02*
X128884762Y-119387676D01*
X128884762Y-119387676D02*
X128789524Y-119482914D01*
X128789524Y-119482914D02*
X128694286Y-119530533D01*
X110241905Y-95494819D02*
X110241905Y-94494819D01*
X110241905Y-94494819D02*
X110480000Y-94494819D01*
X110480000Y-94494819D02*
X110622857Y-94542438D01*
X110622857Y-94542438D02*
X110718095Y-94637676D01*
X110718095Y-94637676D02*
X110765714Y-94732914D01*
X110765714Y-94732914D02*
X110813333Y-94923390D01*
X110813333Y-94923390D02*
X110813333Y-95066247D01*
X110813333Y-95066247D02*
X110765714Y-95256723D01*
X110765714Y-95256723D02*
X110718095Y-95351961D01*
X110718095Y-95351961D02*
X110622857Y-95447200D01*
X110622857Y-95447200D02*
X110480000Y-95494819D01*
X110480000Y-95494819D02*
X110241905Y-95494819D01*
X111146667Y-94494819D02*
X111765714Y-94494819D01*
X111765714Y-94494819D02*
X111432381Y-94875771D01*
X111432381Y-94875771D02*
X111575238Y-94875771D01*
X111575238Y-94875771D02*
X111670476Y-94923390D01*
X111670476Y-94923390D02*
X111718095Y-94971009D01*
X111718095Y-94971009D02*
X111765714Y-95066247D01*
X111765714Y-95066247D02*
X111765714Y-95304342D01*
X111765714Y-95304342D02*
X111718095Y-95399580D01*
X111718095Y-95399580D02*
X111670476Y-95447200D01*
X111670476Y-95447200D02*
X111575238Y-95494819D01*
X111575238Y-95494819D02*
X111289524Y-95494819D01*
X111289524Y-95494819D02*
X111194286Y-95447200D01*
X111194286Y-95447200D02*
X111146667Y-95399580D01*
X153083333Y-94859580D02*
X153035714Y-94907200D01*
X153035714Y-94907200D02*
X152892857Y-94954819D01*
X152892857Y-94954819D02*
X152797619Y-94954819D01*
X152797619Y-94954819D02*
X152654762Y-94907200D01*
X152654762Y-94907200D02*
X152559524Y-94811961D01*
X152559524Y-94811961D02*
X152511905Y-94716723D01*
X152511905Y-94716723D02*
X152464286Y-94526247D01*
X152464286Y-94526247D02*
X152464286Y-94383390D01*
X152464286Y-94383390D02*
X152511905Y-94192914D01*
X152511905Y-94192914D02*
X152559524Y-94097676D01*
X152559524Y-94097676D02*
X152654762Y-94002438D01*
X152654762Y-94002438D02*
X152797619Y-93954819D01*
X152797619Y-93954819D02*
X152892857Y-93954819D01*
X152892857Y-93954819D02*
X153035714Y-94002438D01*
X153035714Y-94002438D02*
X153083333Y-94050057D01*
X154035714Y-94954819D02*
X153464286Y-94954819D01*
X153750000Y-94954819D02*
X153750000Y-93954819D01*
X153750000Y-93954819D02*
X153654762Y-94097676D01*
X153654762Y-94097676D02*
X153559524Y-94192914D01*
X153559524Y-94192914D02*
X153464286Y-94240533D01*
X175261905Y-71494819D02*
X175261905Y-70494819D01*
X175261905Y-70494819D02*
X175500000Y-70494819D01*
X175500000Y-70494819D02*
X175642857Y-70542438D01*
X175642857Y-70542438D02*
X175738095Y-70637676D01*
X175738095Y-70637676D02*
X175785714Y-70732914D01*
X175785714Y-70732914D02*
X175833333Y-70923390D01*
X175833333Y-70923390D02*
X175833333Y-71066247D01*
X175833333Y-71066247D02*
X175785714Y-71256723D01*
X175785714Y-71256723D02*
X175738095Y-71351961D01*
X175738095Y-71351961D02*
X175642857Y-71447200D01*
X175642857Y-71447200D02*
X175500000Y-71494819D01*
X175500000Y-71494819D02*
X175261905Y-71494819D01*
X176166667Y-70494819D02*
X176833333Y-70494819D01*
X176833333Y-70494819D02*
X176404762Y-71494819D01*
X146084819Y-87416666D02*
X145608628Y-87749999D01*
X146084819Y-87988094D02*
X145084819Y-87988094D01*
X145084819Y-87988094D02*
X145084819Y-87607142D01*
X145084819Y-87607142D02*
X145132438Y-87511904D01*
X145132438Y-87511904D02*
X145180057Y-87464285D01*
X145180057Y-87464285D02*
X145275295Y-87416666D01*
X145275295Y-87416666D02*
X145418152Y-87416666D01*
X145418152Y-87416666D02*
X145513390Y-87464285D01*
X145513390Y-87464285D02*
X145561009Y-87511904D01*
X145561009Y-87511904D02*
X145608628Y-87607142D01*
X145608628Y-87607142D02*
X145608628Y-87988094D01*
X146084819Y-86464285D02*
X146084819Y-87035713D01*
X146084819Y-86749999D02*
X145084819Y-86749999D01*
X145084819Y-86749999D02*
X145227676Y-86845237D01*
X145227676Y-86845237D02*
X145322914Y-86940475D01*
X145322914Y-86940475D02*
X145370533Y-87035713D01*
X142245713Y-95454819D02*
X141912380Y-94978628D01*
X141674285Y-95454819D02*
X141674285Y-94454819D01*
X141674285Y-94454819D02*
X142055237Y-94454819D01*
X142055237Y-94454819D02*
X142150475Y-94502438D01*
X142150475Y-94502438D02*
X142198094Y-94550057D01*
X142198094Y-94550057D02*
X142245713Y-94645295D01*
X142245713Y-94645295D02*
X142245713Y-94788152D01*
X142245713Y-94788152D02*
X142198094Y-94883390D01*
X142198094Y-94883390D02*
X142150475Y-94931009D01*
X142150475Y-94931009D02*
X142055237Y-94978628D01*
X142055237Y-94978628D02*
X141674285Y-94978628D01*
X142531428Y-94454819D02*
X142864761Y-95454819D01*
X142864761Y-95454819D02*
X143198094Y-94454819D01*
X143531428Y-95454819D02*
X143531428Y-94788152D01*
X143531428Y-94978628D02*
X143579047Y-94883390D01*
X143579047Y-94883390D02*
X143626666Y-94835771D01*
X143626666Y-94835771D02*
X143721904Y-94788152D01*
X143721904Y-94788152D02*
X143817142Y-94788152D01*
X144150476Y-95454819D02*
X144150476Y-94788152D01*
X144150476Y-94978628D02*
X144198095Y-94883390D01*
X144198095Y-94883390D02*
X144245714Y-94835771D01*
X144245714Y-94835771D02*
X144340952Y-94788152D01*
X144340952Y-94788152D02*
X144436190Y-94788152D01*
X145293333Y-95454819D02*
X144721905Y-95454819D01*
X145007619Y-95454819D02*
X145007619Y-94454819D01*
X145007619Y-94454819D02*
X144912381Y-94597676D01*
X144912381Y-94597676D02*
X144817143Y-94692914D01*
X144817143Y-94692914D02*
X144721905Y-94740533D01*
D12*
%TO.C,J2*%
X153120000Y-84330000D02*
X154500000Y-84330000D01*
X153120000Y-85710000D02*
X153120000Y-84330000D01*
X153120000Y-86980000D02*
X153120000Y-89630000D01*
X153120000Y-86980000D02*
X155880000Y-86980000D01*
X153120000Y-89630000D02*
X155880000Y-89630000D01*
X155880000Y-86980000D02*
X155880000Y-89630000D01*
%TO.C,D4*%
X147920000Y-141764000D02*
X147920000Y-141920000D01*
X147920000Y-144080000D02*
X147920000Y-144236000D01*
X147920000Y-141764484D02*
G75*
G02*
X151151437Y-141920000I1560000J-1235516D01*
G01*
X148439039Y-141920000D02*
G75*
G02*
X150520961Y-141920000I1040961J-1080000D01*
G01*
X150520961Y-144080000D02*
G75*
G02*
X148439039Y-144080000I-1040961J1080000D01*
G01*
X151151437Y-144080000D02*
G75*
G02*
X147920000Y-144235516I-1671437J1080000D01*
G01*
%TO.C,U1*%
X124860000Y-96855000D02*
X124860000Y-102155000D01*
X124860000Y-102155000D02*
X135140000Y-102155000D01*
X135140000Y-96855000D02*
X124860000Y-96855000D01*
X135140000Y-98505000D02*
X135140000Y-96855000D01*
X135140000Y-102155000D02*
X135140000Y-100505000D01*
X135140000Y-100505000D02*
G75*
G02*
X135140000Y-98505000I0J1000000D01*
G01*
%TO.C,D6*%
X188670000Y-96014000D02*
X188670000Y-96170000D01*
X188670000Y-98330000D02*
X188670000Y-98486000D01*
X188670000Y-96014484D02*
G75*
G02*
X191901437Y-96170000I1560000J-1235516D01*
G01*
X189189039Y-96170000D02*
G75*
G02*
X191270961Y-96170000I1040961J-1080000D01*
G01*
X191270961Y-98330000D02*
G75*
G02*
X189189039Y-98330000I-1040961J1080000D01*
G01*
X191901437Y-98330000D02*
G75*
G02*
X188670000Y-98485516I-1671437J1080000D01*
G01*
%TO.C,D5*%
X169920000Y-119764000D02*
X169920000Y-119920000D01*
X169920000Y-122080000D02*
X169920000Y-122236000D01*
X169920000Y-119764484D02*
G75*
G02*
X173151437Y-119920000I1560000J-1235516D01*
G01*
X170439039Y-119920000D02*
G75*
G02*
X172520961Y-119920000I1040961J-1080000D01*
G01*
X172520961Y-122080000D02*
G75*
G02*
X170439039Y-122080000I-1040961J1080000D01*
G01*
X173151437Y-122080000D02*
G75*
G02*
X169920000Y-122235516I-1671437J1080000D01*
G01*
%TO.C,D2*%
X123920000Y-73764000D02*
X123920000Y-73920000D01*
X123920000Y-76080000D02*
X123920000Y-76236000D01*
X123920000Y-73764484D02*
G75*
G02*
X127151437Y-73920000I1560000J-1235516D01*
G01*
X124439039Y-73920000D02*
G75*
G02*
X126520961Y-73920000I1040961J-1080000D01*
G01*
X126520961Y-76080000D02*
G75*
G02*
X124439039Y-76080000I-1040961J1080000D01*
G01*
X127151437Y-76080000D02*
G75*
G02*
X123920000Y-76235516I-1671437J1080000D01*
G01*
%TO.C,R2*%
X135380000Y-108230000D02*
X135710000Y-108230000D01*
X135380000Y-114770000D02*
X135380000Y-108230000D01*
X135710000Y-114770000D02*
X135380000Y-114770000D01*
X137790000Y-114770000D02*
X138120000Y-114770000D01*
X138120000Y-108230000D02*
X137790000Y-108230000D01*
X138120000Y-114770000D02*
X138120000Y-108230000D01*
%TO.C,J1*%
X143370000Y-107370000D02*
X144750000Y-107370000D01*
X143370000Y-108750000D02*
X143370000Y-107370000D01*
X143370000Y-110020000D02*
X143370000Y-112670000D01*
X143370000Y-110020000D02*
X146130000Y-110020000D01*
X143370000Y-112670000D02*
X146130000Y-112670000D01*
X146130000Y-110020000D02*
X146130000Y-112670000D01*
%TO.C,D1*%
X126920000Y-121514000D02*
X126920000Y-121670000D01*
X126920000Y-123830000D02*
X126920000Y-123986000D01*
X126920000Y-121514484D02*
G75*
G02*
X130151437Y-121670000I1560000J-1235516D01*
G01*
X127439039Y-121670000D02*
G75*
G02*
X129520961Y-121670000I1040961J-1080000D01*
G01*
X129520961Y-123830000D02*
G75*
G02*
X127439039Y-123830000I-1040961J1080000D01*
G01*
X130151437Y-123830000D02*
G75*
G02*
X126920000Y-123985516I-1671437J1080000D01*
G01*
%TO.C,D3*%
X109420000Y-96764000D02*
X109420000Y-96920000D01*
X109420000Y-99080000D02*
X109420000Y-99236000D01*
X109420000Y-96764484D02*
G75*
G02*
X112651437Y-96920000I1560000J-1235516D01*
G01*
X109939039Y-96920000D02*
G75*
G02*
X112020961Y-96920000I1040961J-1080000D01*
G01*
X112020961Y-99080000D02*
G75*
G02*
X109939039Y-99080000I-1040961J1080000D01*
G01*
X112651437Y-99080000D02*
G75*
G02*
X109420000Y-99235516I-1671437J1080000D01*
G01*
D13*
%TO.C,G\u002A\u002A\u002A*%
G36*
X157749775Y-93054831D02*
G01*
X157721235Y-93083370D01*
X157692696Y-93054831D01*
X157721235Y-93026291D01*
X157749775Y-93054831D01*
G37*
G36*
X165055842Y-82666516D02*
G01*
X165027303Y-82695055D01*
X164998763Y-82666516D01*
X165027303Y-82637977D01*
X165055842Y-82666516D01*
G37*
G36*
X172571198Y-84768913D02*
G01*
X172578029Y-84836652D01*
X172571198Y-84845018D01*
X172537265Y-84837183D01*
X172533145Y-84806965D01*
X172554030Y-84759983D01*
X172571198Y-84768913D01*
G37*
G36*
X179706968Y-93415140D02*
G01*
X179713773Y-93504347D01*
X179702462Y-93524540D01*
X179676519Y-93507517D01*
X179672483Y-93449625D01*
X179686423Y-93388720D01*
X179706968Y-93415140D01*
G37*
G36*
X174530898Y-104101341D02*
G01*
X174484640Y-104150400D01*
X174445280Y-104156628D01*
X174369125Y-104144416D01*
X174359662Y-104134196D01*
X174404295Y-104097391D01*
X174445280Y-104078908D01*
X174518778Y-104077722D01*
X174530898Y-104101341D01*
G37*
G36*
X162084950Y-87118651D02*
G01*
X162068409Y-87245143D01*
X162026036Y-87365285D01*
X161976114Y-87430433D01*
X161966938Y-87432583D01*
X161918838Y-87396433D01*
X161918539Y-87389774D01*
X161941887Y-87317606D01*
X161992105Y-87221922D01*
X162046248Y-87140106D01*
X162081371Y-87109541D01*
X162084950Y-87118651D01*
G37*
G36*
X166254098Y-77861007D02*
G01*
X166375186Y-77956615D01*
X166498847Y-78059333D01*
X166586217Y-78120494D01*
X166604578Y-78127851D01*
X166646209Y-78175972D01*
X166670682Y-78243298D01*
X166752287Y-78345654D01*
X166873116Y-78392330D01*
X167040425Y-78460739D01*
X167170230Y-78559490D01*
X167294861Y-78692154D01*
X167107536Y-78981245D01*
X167001740Y-79134357D01*
X166916731Y-79239161D01*
X166877125Y-79270336D01*
X166810269Y-79236632D01*
X166694945Y-79152279D01*
X166650662Y-79116035D01*
X166510467Y-78968205D01*
X166402372Y-78803768D01*
X166390294Y-78777466D01*
X166322615Y-78642933D01*
X166260405Y-78560972D01*
X166255359Y-78557387D01*
X166211428Y-78479000D01*
X166195392Y-78367979D01*
X166164460Y-78198770D01*
X166111797Y-78071684D01*
X166037337Y-77902125D01*
X166042686Y-77807674D01*
X166118166Y-77792558D01*
X166254098Y-77861007D01*
G37*
G36*
X176222739Y-78546485D02*
G01*
X176232599Y-78664196D01*
X176218004Y-78735318D01*
X176115755Y-78978295D01*
X175927380Y-79216069D01*
X175642625Y-79460211D01*
X175463873Y-79586296D01*
X175227656Y-79736276D01*
X175036650Y-79841525D01*
X174902233Y-79897701D01*
X174835783Y-79900464D01*
X174848675Y-79845473D01*
X174874583Y-79811122D01*
X174913174Y-79731753D01*
X174890960Y-79628509D01*
X174844066Y-79533182D01*
X174784822Y-79386639D01*
X174770726Y-79270419D01*
X174774447Y-79255886D01*
X174843808Y-79180865D01*
X174987571Y-79080545D01*
X175174325Y-78972469D01*
X175372659Y-78874183D01*
X175551163Y-78803231D01*
X175618358Y-78784516D01*
X175736821Y-78746262D01*
X175786625Y-78705872D01*
X175786629Y-78705586D01*
X175833043Y-78656503D01*
X175948174Y-78587284D01*
X175984243Y-78569379D01*
X176141614Y-78516058D01*
X176222739Y-78546485D01*
G37*
G36*
X162891521Y-88495039D02*
G01*
X163050681Y-88582573D01*
X163190818Y-88696222D01*
X163275962Y-88809606D01*
X163286755Y-88854126D01*
X163312699Y-88965838D01*
X163374950Y-89110642D01*
X163377981Y-89116404D01*
X163429524Y-89254459D01*
X163446843Y-89429935D01*
X163434155Y-89674580D01*
X163409277Y-89886855D01*
X163378219Y-90062925D01*
X163349578Y-90159749D01*
X163153374Y-90564339D01*
X162958548Y-90998482D01*
X162781973Y-91422775D01*
X162640525Y-91797818D01*
X162610813Y-91884718D01*
X162515506Y-92144600D01*
X162420386Y-92357300D01*
X162337684Y-92496710D01*
X162309928Y-92526853D01*
X162116548Y-92620208D01*
X161904792Y-92610318D01*
X161698358Y-92500061D01*
X161638581Y-92445370D01*
X161534863Y-92320795D01*
X161464217Y-92181267D01*
X161422583Y-92004931D01*
X161405900Y-91769935D01*
X161410110Y-91454423D01*
X161418679Y-91261636D01*
X161472614Y-90736561D01*
X161576154Y-90225202D01*
X161721605Y-89753371D01*
X161901270Y-89346881D01*
X162069032Y-89080025D01*
X162273677Y-88830568D01*
X162465927Y-88634373D01*
X162629809Y-88505998D01*
X162749310Y-88459999D01*
X162891521Y-88495039D01*
G37*
G36*
X160042623Y-89474286D02*
G01*
X160071864Y-89537696D01*
X160080476Y-89661168D01*
X160068485Y-89863253D01*
X160043479Y-90099084D01*
X160009670Y-90410790D01*
X159977568Y-90746838D01*
X159952791Y-91047313D01*
X159947687Y-91120626D01*
X159916424Y-91416373D01*
X159864172Y-91738671D01*
X159805264Y-92005345D01*
X159750081Y-92231722D01*
X159709631Y-92433537D01*
X159691986Y-92570072D01*
X159691792Y-92577825D01*
X159655063Y-92711611D01*
X159592161Y-92766401D01*
X159529438Y-92806737D01*
X159569361Y-92850772D01*
X159608407Y-92897441D01*
X159615261Y-92987766D01*
X159590181Y-93149627D01*
X159572913Y-93232982D01*
X159496534Y-93484736D01*
X159393331Y-93680851D01*
X159277028Y-93799715D01*
X159196646Y-93825392D01*
X159112625Y-93781911D01*
X159038488Y-93696965D01*
X158980728Y-93535062D01*
X158951304Y-93287075D01*
X158949112Y-92977217D01*
X158973046Y-92629699D01*
X159021999Y-92268735D01*
X159094866Y-91918535D01*
X159124827Y-91806452D01*
X159203048Y-91528323D01*
X159289704Y-91215012D01*
X159354521Y-90976907D01*
X159420537Y-90749593D01*
X159487560Y-90547677D01*
X159541892Y-90412194D01*
X159545325Y-90405367D01*
X159605436Y-90265491D01*
X159675543Y-90069396D01*
X159715312Y-89943291D01*
X159809268Y-89675374D01*
X159900629Y-89509326D01*
X159986371Y-89449482D01*
X160042623Y-89474286D01*
G37*
G36*
X178828769Y-88120177D02*
G01*
X178895648Y-88304178D01*
X178929362Y-88450116D01*
X178996573Y-88693380D01*
X179094428Y-88956796D01*
X179154283Y-89087864D01*
X179327298Y-89469946D01*
X179487032Y-89896063D01*
X179629929Y-90348747D01*
X179752431Y-90810529D01*
X179850979Y-91263942D01*
X179922017Y-91691519D01*
X179961987Y-92075792D01*
X179967331Y-92399292D01*
X179934493Y-92644553D01*
X179898267Y-92740898D01*
X179805142Y-92880548D01*
X179692725Y-92948213D01*
X179517403Y-92968018D01*
X179487127Y-92968339D01*
X179334531Y-92951681D01*
X179231570Y-92879945D01*
X179158924Y-92776970D01*
X179082468Y-92638007D01*
X179042026Y-92534760D01*
X179040112Y-92520116D01*
X179009963Y-92458671D01*
X178996508Y-92455505D01*
X178950667Y-92408130D01*
X178876883Y-92285475D01*
X178811313Y-92155842D01*
X178701898Y-91953875D01*
X178552978Y-91716164D01*
X178402125Y-91501485D01*
X178258650Y-91298443D01*
X178164408Y-91121355D01*
X178099149Y-90923028D01*
X178045073Y-90669396D01*
X177985690Y-90306524D01*
X177961356Y-90012591D01*
X177971990Y-89747919D01*
X178017511Y-89472829D01*
X178042425Y-89363598D01*
X178134796Y-88991804D01*
X178212793Y-88712984D01*
X178283787Y-88508047D01*
X178355149Y-88357898D01*
X178434249Y-88243445D01*
X178503518Y-88169126D01*
X178642304Y-88058985D01*
X178747521Y-88040558D01*
X178828769Y-88120177D01*
G37*
G36*
X181023158Y-89587434D02*
G01*
X181158956Y-89698409D01*
X181324822Y-89858127D01*
X181500210Y-90046327D01*
X181664574Y-90242750D01*
X181722808Y-90319327D01*
X181857033Y-90495248D01*
X181986152Y-90653732D01*
X182049717Y-90725519D01*
X182134830Y-90847300D01*
X182234406Y-91035838D01*
X182324275Y-91243884D01*
X182419045Y-91484592D01*
X182517900Y-91726119D01*
X182588625Y-91891398D01*
X182669146Y-92139893D01*
X182667284Y-92329154D01*
X182667327Y-92527959D01*
X182746700Y-92761702D01*
X182843855Y-93048484D01*
X182847827Y-93301794D01*
X182757610Y-93555505D01*
X182721175Y-93621337D01*
X182579693Y-93836967D01*
X182444779Y-93969533D01*
X182284342Y-94043382D01*
X182122359Y-94075675D01*
X181923442Y-94086405D01*
X181772419Y-94043967D01*
X181697429Y-94000026D01*
X181525958Y-93855720D01*
X181435784Y-93689484D01*
X181416412Y-93471913D01*
X181438936Y-93275888D01*
X181474071Y-92988690D01*
X181490740Y-92690809D01*
X181488788Y-92415989D01*
X181468058Y-92197977D01*
X181444351Y-92102479D01*
X181416173Y-91983347D01*
X181387327Y-91788628D01*
X181363320Y-91556728D01*
X181359916Y-91513707D01*
X181316132Y-91181704D01*
X181228687Y-90825019D01*
X181096828Y-90429213D01*
X180976166Y-90082877D01*
X180902043Y-89830683D01*
X180872783Y-89663295D01*
X180886708Y-89571381D01*
X180937977Y-89545461D01*
X181023158Y-89587434D01*
G37*
G36*
X163875943Y-98952563D02*
G01*
X164059584Y-98990966D01*
X164293060Y-99076994D01*
X164540436Y-99193035D01*
X164765776Y-99321481D01*
X164933142Y-99444721D01*
X164979692Y-99493437D01*
X165094153Y-99609991D01*
X165253665Y-99740116D01*
X165313820Y-99782751D01*
X165633778Y-100002872D01*
X165876689Y-100184988D01*
X166062551Y-100351210D01*
X166211363Y-100523649D01*
X166343124Y-100724417D01*
X166477832Y-100975624D01*
X166578840Y-101181391D01*
X166783250Y-101573475D01*
X166978727Y-101886820D01*
X167144049Y-102093652D01*
X167300415Y-102267274D01*
X167375870Y-102387889D01*
X167375927Y-102477077D01*
X167306095Y-102556418D01*
X167269209Y-102583729D01*
X167135028Y-102631705D01*
X166919657Y-102659194D01*
X166654168Y-102666423D01*
X166369634Y-102653617D01*
X166097127Y-102621004D01*
X165883482Y-102573621D01*
X165678202Y-102517640D01*
X165486660Y-102473412D01*
X165419710Y-102461135D01*
X165284819Y-102402450D01*
X165106000Y-102273656D01*
X164906821Y-102096713D01*
X164710849Y-101893580D01*
X164541650Y-101686216D01*
X164463625Y-101570285D01*
X164377608Y-101448388D01*
X164235015Y-101267323D01*
X164056218Y-101052249D01*
X163875691Y-100844198D01*
X163592578Y-100504444D01*
X163367653Y-100181454D01*
X163166776Y-99824858D01*
X163114884Y-99721659D01*
X163001261Y-99479487D01*
X162913679Y-99269763D01*
X162861258Y-99115996D01*
X162852008Y-99043940D01*
X162924886Y-98998706D01*
X163090976Y-98965565D01*
X163329796Y-98946344D01*
X163620863Y-98942871D01*
X163875943Y-98952563D01*
G37*
G36*
X165679216Y-92040295D02*
G01*
X165805232Y-92118279D01*
X165805323Y-92118344D01*
X166083564Y-92297857D01*
X166426329Y-92490226D01*
X166711123Y-92633594D01*
X166898235Y-92724124D01*
X167068220Y-92808211D01*
X167119480Y-92834215D01*
X167266759Y-92891858D01*
X167377998Y-92912134D01*
X167478751Y-92950012D01*
X167616861Y-93046604D01*
X167696324Y-93117380D01*
X167828598Y-93261578D01*
X167976692Y-93446987D01*
X168122560Y-93647685D01*
X168248154Y-93837748D01*
X168335427Y-93991250D01*
X168366404Y-94079904D01*
X168405275Y-94168653D01*
X168476000Y-94249355D01*
X168590626Y-94420849D01*
X168660612Y-94672451D01*
X168681135Y-94977284D01*
X168656508Y-95255538D01*
X168613111Y-95474639D01*
X168553319Y-95625588D01*
X168454786Y-95754236D01*
X168375130Y-95832902D01*
X168260608Y-95935606D01*
X168162993Y-95998375D01*
X168048304Y-96031871D01*
X167882558Y-96046753D01*
X167674238Y-96052772D01*
X167239036Y-96063268D01*
X166900607Y-96074199D01*
X166641570Y-96086486D01*
X166444542Y-96101047D01*
X166292141Y-96118803D01*
X166225954Y-96129393D01*
X166048869Y-96142265D01*
X165922518Y-96117540D01*
X165912022Y-96111403D01*
X165780733Y-96060052D01*
X165717244Y-96052334D01*
X165597114Y-96017941D01*
X165418894Y-95928031D01*
X165211869Y-95800549D01*
X165005327Y-95653442D01*
X164838137Y-95513630D01*
X164558605Y-95176893D01*
X164358817Y-94762676D01*
X164243988Y-94288987D01*
X164177052Y-93829740D01*
X164399225Y-93279998D01*
X164514383Y-93008954D01*
X164615749Y-92813097D01*
X164724843Y-92659056D01*
X164863189Y-92513461D01*
X164938508Y-92443806D01*
X165123057Y-92289163D01*
X165303881Y-92157475D01*
X165442275Y-92076895D01*
X165443885Y-92076196D01*
X165579205Y-92028651D01*
X165679216Y-92040295D01*
G37*
G36*
X166840600Y-76385500D02*
G01*
X166983041Y-76433311D01*
X167085351Y-76479192D01*
X167309659Y-76598225D01*
X167533395Y-76741835D01*
X167725431Y-76887788D01*
X167854643Y-77013849D01*
X167876383Y-77044269D01*
X167948002Y-77134220D01*
X168067621Y-77261077D01*
X168124532Y-77316807D01*
X168243148Y-77453220D01*
X168291356Y-77561151D01*
X168288475Y-77587060D01*
X168306297Y-77674880D01*
X168406245Y-77747858D01*
X168556452Y-77785006D01*
X168590966Y-77786291D01*
X168685737Y-77809393D01*
X168708876Y-77843077D01*
X168756384Y-77897088D01*
X168878176Y-77974076D01*
X168979999Y-78025404D01*
X169138833Y-78103208D01*
X169250059Y-78165614D01*
X169279662Y-78188143D01*
X169350960Y-78227726D01*
X169465168Y-78263759D01*
X169578888Y-78318003D01*
X169622134Y-78386704D01*
X169645708Y-78463163D01*
X169664943Y-78473050D01*
X169739544Y-78505555D01*
X169815662Y-78556557D01*
X169882820Y-78616907D01*
X169880506Y-78672915D01*
X169803655Y-78764598D01*
X169787123Y-78782071D01*
X169687911Y-78881365D01*
X169621478Y-78915352D01*
X169542258Y-78901753D01*
X169507977Y-78890645D01*
X169440460Y-78867269D01*
X169350349Y-78833010D01*
X169208620Y-78776547D01*
X169023043Y-78701485D01*
X168883397Y-78664765D01*
X168671896Y-78631586D01*
X168430803Y-78608366D01*
X168395178Y-78606166D01*
X168142407Y-78585496D01*
X167964678Y-78550893D01*
X167822922Y-78491754D01*
X167709999Y-78420239D01*
X167505822Y-78296644D01*
X167277297Y-78185028D01*
X167216368Y-78160442D01*
X167035611Y-78070930D01*
X166845688Y-77943208D01*
X166672916Y-77799537D01*
X166543613Y-77662176D01*
X166484096Y-77553383D01*
X166482808Y-77540007D01*
X166436702Y-77447788D01*
X166397517Y-77423303D01*
X166293854Y-77338204D01*
X166190516Y-77185653D01*
X166112201Y-77009723D01*
X166083471Y-76862906D01*
X166138799Y-76694373D01*
X166301728Y-76547280D01*
X166566928Y-76426364D01*
X166579164Y-76422279D01*
X166722519Y-76383683D01*
X166840600Y-76385500D01*
G37*
G36*
X160749347Y-98283463D02*
G01*
X160819268Y-98351352D01*
X160914832Y-98478176D01*
X161023193Y-98655054D01*
X161069476Y-98741645D01*
X161154259Y-98893314D01*
X161285825Y-99109800D01*
X161446062Y-99361998D01*
X161613629Y-99616014D01*
X161780576Y-99874291D01*
X161931191Y-100125944D01*
X162048897Y-100342080D01*
X162116922Y-100493245D01*
X162199823Y-100712088D01*
X162293620Y-100932231D01*
X162320080Y-100988763D01*
X162389975Y-101169137D01*
X162428036Y-101337229D01*
X162430383Y-101374648D01*
X162442574Y-101500512D01*
X162475268Y-101701856D01*
X162522417Y-101943135D01*
X162544446Y-102045006D01*
X162629789Y-102357794D01*
X162753279Y-102688234D01*
X162923190Y-103054116D01*
X163147795Y-103473229D01*
X163435365Y-103963363D01*
X163440531Y-103971893D01*
X163550967Y-104166685D01*
X163627825Y-104326930D01*
X163659158Y-104426635D01*
X163656939Y-104442792D01*
X163572133Y-104484868D01*
X163416283Y-104493426D01*
X163226741Y-104470749D01*
X163040861Y-104419121D01*
X163001011Y-104402705D01*
X162817595Y-104317444D01*
X162646770Y-104232871D01*
X162639652Y-104229165D01*
X162490139Y-104125309D01*
X162310908Y-103962730D01*
X162120882Y-103763689D01*
X161938985Y-103550447D01*
X161784138Y-103345262D01*
X161675263Y-103170395D01*
X161631285Y-103048106D01*
X161631123Y-103042769D01*
X161588624Y-102957710D01*
X161484033Y-102853404D01*
X161460830Y-102835491D01*
X161321472Y-102706768D01*
X161178652Y-102536901D01*
X161138596Y-102479991D01*
X161010808Y-102304293D01*
X160848495Y-102103603D01*
X160749467Y-101990590D01*
X160598196Y-101799628D01*
X160466419Y-101590477D01*
X160410037Y-101473932D01*
X160330434Y-101277837D01*
X160253742Y-101094910D01*
X160232479Y-101045842D01*
X160149599Y-100840820D01*
X160089628Y-100643482D01*
X160047679Y-100425890D01*
X160018868Y-100160106D01*
X159998307Y-99818193D01*
X159991970Y-99670753D01*
X159959754Y-98866450D01*
X160177553Y-98625372D01*
X160328458Y-98474448D01*
X160477301Y-98350933D01*
X160548985Y-98304848D01*
X160666713Y-98257601D01*
X160749347Y-98283463D01*
G37*
G36*
X175190504Y-91639137D02*
G01*
X175408651Y-91661640D01*
X175614351Y-91705594D01*
X175624085Y-91708450D01*
X176035535Y-91857087D01*
X176351636Y-92035596D01*
X176590213Y-92258905D01*
X176769091Y-92541943D01*
X176851405Y-92736352D01*
X176915648Y-92901642D01*
X176968898Y-93023590D01*
X176985697Y-93054831D01*
X176997172Y-93132166D01*
X176998894Y-93297244D01*
X176991145Y-93524092D01*
X176978381Y-93731690D01*
X176947370Y-94064950D01*
X176904492Y-94306775D01*
X176840494Y-94479856D01*
X176746125Y-94606886D01*
X176612130Y-94710557D01*
X176568359Y-94737251D01*
X176407365Y-94839708D01*
X176220874Y-94968857D01*
X176157640Y-95015178D01*
X175935678Y-95141604D01*
X175625036Y-95251562D01*
X175401850Y-95309334D01*
X175170015Y-95368089D01*
X174982703Y-95423929D01*
X174866243Y-95468578D01*
X174841965Y-95485311D01*
X174762662Y-95532668D01*
X174722038Y-95537752D01*
X174617846Y-95571164D01*
X174489864Y-95651541D01*
X174489395Y-95651909D01*
X174365393Y-95725717D01*
X174223495Y-95752512D01*
X174039091Y-95731216D01*
X173787574Y-95660748D01*
X173653076Y-95615206D01*
X173431901Y-95529904D01*
X173232920Y-95439435D01*
X173102018Y-95365153D01*
X172957646Y-95286333D01*
X172828686Y-95252387D01*
X172826005Y-95252359D01*
X172692290Y-95205244D01*
X172615691Y-95074886D01*
X172597757Y-94877763D01*
X172640039Y-94630352D01*
X172741551Y-94354634D01*
X172828790Y-94161630D01*
X172901036Y-93996374D01*
X172936186Y-93911010D01*
X173020294Y-93714352D01*
X173135831Y-93473866D01*
X173255895Y-93243854D01*
X173332090Y-93111909D01*
X173429509Y-92948171D01*
X173537680Y-92756593D01*
X173561778Y-92712359D01*
X173677377Y-92526762D01*
X173808583Y-92354594D01*
X173836799Y-92323227D01*
X173975329Y-92196262D01*
X174154384Y-92058174D01*
X174344459Y-91928670D01*
X174516052Y-91827455D01*
X174639659Y-91774236D01*
X174664242Y-91770561D01*
X174754119Y-91731936D01*
X174772385Y-91702506D01*
X174841271Y-91659353D01*
X174991010Y-91638302D01*
X175190504Y-91639137D01*
G37*
G36*
X161695151Y-103740576D02*
G01*
X161816754Y-103847508D01*
X161969258Y-103998601D01*
X162132091Y-104171658D01*
X162284681Y-104344483D01*
X162406457Y-104494879D01*
X162476846Y-104600651D01*
X162486345Y-104629328D01*
X162463101Y-104787161D01*
X162401286Y-104996166D01*
X162316144Y-105217481D01*
X162222923Y-105412244D01*
X162136867Y-105541594D01*
X162123173Y-105555055D01*
X162007655Y-105680442D01*
X161888827Y-105844072D01*
X161868321Y-105877055D01*
X161661005Y-106133626D01*
X161363644Y-106376395D01*
X161000242Y-106586546D01*
X160910502Y-106627997D01*
X160724630Y-106706575D01*
X160578361Y-106762135D01*
X160505529Y-106782246D01*
X160403355Y-106833119D01*
X160315161Y-106960912D01*
X160254968Y-107128389D01*
X160236795Y-107298313D01*
X160265864Y-107418761D01*
X160294142Y-107519998D01*
X160321601Y-107699057D01*
X160342855Y-107919697D01*
X160344964Y-107950831D01*
X160362918Y-108167750D01*
X160384756Y-108341660D01*
X160406213Y-108439777D01*
X160409450Y-108446455D01*
X160412191Y-108535695D01*
X160372480Y-108642745D01*
X160291225Y-108739834D01*
X160161662Y-108777154D01*
X160083723Y-108779999D01*
X159936182Y-108792268D01*
X159844910Y-108822591D01*
X159837043Y-108830771D01*
X159765780Y-108869646D01*
X159635657Y-108899386D01*
X159495693Y-108913401D01*
X159394910Y-108905104D01*
X159375664Y-108892778D01*
X159377844Y-108822235D01*
X159407001Y-108678276D01*
X159441481Y-108547093D01*
X159481918Y-108352499D01*
X159517184Y-108087025D01*
X159542115Y-107793948D01*
X159549342Y-107643143D01*
X159568927Y-107048535D01*
X160108723Y-106501570D01*
X160401743Y-106198712D01*
X160620654Y-105953825D01*
X160776048Y-105748343D01*
X160878512Y-105563699D01*
X160938637Y-105381326D01*
X160967012Y-105182657D01*
X160974097Y-104984269D01*
X160987445Y-104684477D01*
X161027705Y-104471239D01*
X161102513Y-104318590D01*
X161199917Y-104216293D01*
X161274912Y-104103989D01*
X161288651Y-104035482D01*
X161320388Y-103946711D01*
X161360539Y-103928314D01*
X161444265Y-103884636D01*
X161503719Y-103814156D01*
X161578201Y-103725054D01*
X161625021Y-103699999D01*
X161695151Y-103740576D01*
G37*
G36*
X178301596Y-98728917D02*
G01*
X178452733Y-98776264D01*
X178511202Y-98833949D01*
X178514210Y-98952510D01*
X178474426Y-99130419D01*
X178405705Y-99327912D01*
X178321906Y-99505229D01*
X178236885Y-99622605D01*
X178236119Y-99623302D01*
X178127815Y-99755276D01*
X178043358Y-99907993D01*
X177972449Y-100017434D01*
X177831499Y-100187450D01*
X177635482Y-100402425D01*
X177399370Y-100646746D01*
X177138137Y-100904799D01*
X176866753Y-101160968D01*
X176680354Y-101329398D01*
X176447607Y-101515619D01*
X176174190Y-101703524D01*
X175883973Y-101879863D01*
X175600826Y-102031388D01*
X175348620Y-102144848D01*
X175151226Y-102206993D01*
X175085407Y-102214701D01*
X174915597Y-102244779D01*
X174800014Y-102294782D01*
X174592046Y-102381942D01*
X174328578Y-102409544D01*
X174150063Y-102401177D01*
X173985867Y-102371700D01*
X173868679Y-102322895D01*
X173850205Y-102306694D01*
X173799945Y-102202333D01*
X173754926Y-102038764D01*
X173722742Y-101858254D01*
X173710987Y-101703070D01*
X173726247Y-101616776D01*
X173768403Y-101530001D01*
X173823968Y-101380575D01*
X173844320Y-101318447D01*
X173913234Y-101143800D01*
X173992065Y-101003366D01*
X174013934Y-100975975D01*
X174117026Y-100850764D01*
X174234812Y-100688356D01*
X174319641Y-100560673D01*
X175101685Y-100560673D01*
X175142652Y-100616118D01*
X175155395Y-100617752D01*
X175232698Y-100576261D01*
X175244381Y-100560673D01*
X175231442Y-100511808D01*
X175190671Y-100503595D01*
X175112575Y-100533395D01*
X175101685Y-100560673D01*
X174319641Y-100560673D01*
X174346967Y-100519543D01*
X174433165Y-100375117D01*
X174473080Y-100285869D01*
X174473820Y-100279265D01*
X174515886Y-100220667D01*
X174532311Y-100218201D01*
X174593661Y-100170953D01*
X174645056Y-100075505D01*
X174704665Y-99969658D01*
X174757800Y-99932808D01*
X174812933Y-99887659D01*
X174817476Y-99861460D01*
X174865682Y-99791852D01*
X174992634Y-99688184D01*
X175174200Y-99565865D01*
X175386244Y-99440307D01*
X175604633Y-99326920D01*
X175765115Y-99256344D01*
X175957483Y-99192488D01*
X176214810Y-99122845D01*
X176489388Y-99060040D01*
X176560766Y-99045801D01*
X176802259Y-98994197D01*
X177010968Y-98940183D01*
X177153792Y-98892693D01*
X177185609Y-98877189D01*
X177364747Y-98799204D01*
X177593544Y-98744483D01*
X177844371Y-98713927D01*
X178089598Y-98708438D01*
X178301596Y-98728917D01*
G37*
G36*
X183391935Y-93288072D02*
G01*
X183523268Y-93373127D01*
X183569630Y-93413645D01*
X183779621Y-93586999D01*
X183975214Y-93680083D01*
X184200698Y-93710545D01*
X184311059Y-93709073D01*
X184633802Y-93699266D01*
X184866229Y-93703333D01*
X185031778Y-93725525D01*
X185153885Y-93770093D01*
X185255984Y-93841288D01*
X185308739Y-93890037D01*
X185430114Y-94035205D01*
X185510813Y-94180300D01*
X185522314Y-94218239D01*
X185569877Y-94378221D01*
X185640397Y-94541596D01*
X185715900Y-94672984D01*
X185778415Y-94737009D01*
X185786692Y-94738651D01*
X185862447Y-94769855D01*
X185982498Y-94846413D01*
X186002396Y-94860864D01*
X186163066Y-94946467D01*
X186339988Y-94954386D01*
X186379281Y-94948742D01*
X186612512Y-94873028D01*
X186778474Y-94726471D01*
X186883464Y-94499012D01*
X186933779Y-94180589D01*
X186939461Y-94053707D01*
X186948697Y-93895545D01*
X186979908Y-93820645D01*
X187053180Y-93798125D01*
X187106526Y-93796853D01*
X187184033Y-93804358D01*
X187244901Y-93840137D01*
X187302974Y-93924085D01*
X187372099Y-94076097D01*
X187464014Y-94310561D01*
X187565883Y-94597223D01*
X187620365Y-94807146D01*
X187633022Y-94964724D01*
X187626728Y-95024044D01*
X187574663Y-95172398D01*
X187480394Y-95329994D01*
X187369850Y-95461941D01*
X187268962Y-95533349D01*
X187244950Y-95537752D01*
X187171706Y-95570259D01*
X187048775Y-95649713D01*
X186913357Y-95749017D01*
X186802651Y-95841072D01*
X186755243Y-95894493D01*
X186686539Y-95926006D01*
X186544607Y-95934829D01*
X186367664Y-95922999D01*
X186193930Y-95892555D01*
X186089325Y-95858991D01*
X185839625Y-95776782D01*
X185539025Y-95714317D01*
X185238340Y-95679639D01*
X184988384Y-95680791D01*
X184973898Y-95682447D01*
X184848155Y-95694024D01*
X184750874Y-95682343D01*
X184654340Y-95633387D01*
X184530839Y-95533140D01*
X184354208Y-95369050D01*
X184175313Y-95203302D01*
X184047880Y-95101480D01*
X183941423Y-95048031D01*
X183825456Y-95027403D01*
X183677890Y-95024044D01*
X183315048Y-94977273D01*
X182997187Y-94831165D01*
X182799057Y-94673869D01*
X182690983Y-94566876D01*
X182656869Y-94494645D01*
X182686782Y-94414520D01*
X182724779Y-94354906D01*
X182793402Y-94229742D01*
X182885732Y-94034554D01*
X182984689Y-93805939D01*
X183010979Y-93741617D01*
X183121834Y-93493021D01*
X183218191Y-93329483D01*
X183292624Y-93263595D01*
X183292949Y-93263528D01*
X183391935Y-93288072D01*
G37*
G36*
X175250413Y-76965203D02*
G01*
X175412934Y-77072897D01*
X175538092Y-77177984D01*
X175576624Y-77223612D01*
X175658914Y-77309119D01*
X175713275Y-77329662D01*
X175787258Y-77378053D01*
X175867684Y-77495937D01*
X175932050Y-77642379D01*
X175957864Y-77774610D01*
X175937956Y-77864816D01*
X175867983Y-77955307D01*
X175732576Y-78058912D01*
X175516364Y-78188458D01*
X175358539Y-78274823D01*
X175146301Y-78394545D01*
X174956489Y-78511778D01*
X174826439Y-78603321D01*
X174816291Y-78611762D01*
X174502401Y-78815962D01*
X174110149Y-78967866D01*
X173665331Y-79061910D01*
X173193741Y-79092528D01*
X172747190Y-79058217D01*
X172633177Y-79016897D01*
X172590224Y-78957956D01*
X172547013Y-78905563D01*
X172476067Y-78911326D01*
X172382946Y-78908978D01*
X172361909Y-78873366D01*
X172324878Y-78781560D01*
X172272074Y-78715717D01*
X172226220Y-78624474D01*
X172230690Y-78619331D01*
X172444066Y-78619331D01*
X172476067Y-78671010D01*
X172543608Y-78741896D01*
X172566882Y-78756628D01*
X172567449Y-78713419D01*
X172553787Y-78671010D01*
X172493903Y-78595389D01*
X172462971Y-78585392D01*
X172444066Y-78619331D01*
X172230690Y-78619331D01*
X172283093Y-78559033D01*
X172432305Y-78529792D01*
X172458428Y-78529188D01*
X172573605Y-78505125D01*
X172618763Y-78471235D01*
X172697230Y-78427483D01*
X172797053Y-78414156D01*
X172947007Y-78365060D01*
X173074097Y-78254870D01*
X173119558Y-78214381D01*
X175044606Y-78214381D01*
X175073145Y-78242920D01*
X175101685Y-78214381D01*
X175073145Y-78185842D01*
X175044606Y-78214381D01*
X173119558Y-78214381D01*
X173197041Y-78145372D01*
X173381557Y-78021265D01*
X173419280Y-78000573D01*
X175385017Y-78000573D01*
X175435049Y-78008507D01*
X175557630Y-77932599D01*
X175629662Y-77872843D01*
X175729396Y-77749761D01*
X175782047Y-77615932D01*
X175782075Y-77503856D01*
X175723940Y-77446032D01*
X175702802Y-77443819D01*
X175644999Y-77482167D01*
X175650719Y-77526541D01*
X175635741Y-77618627D01*
X175558463Y-77741420D01*
X175534770Y-77768542D01*
X175415577Y-77917638D01*
X175385017Y-78000573D01*
X173419280Y-78000573D01*
X173554014Y-77926667D01*
X173728608Y-77834478D01*
X173853462Y-77755354D01*
X173901466Y-77706552D01*
X173947973Y-77596922D01*
X174066360Y-77448740D01*
X174232513Y-77285234D01*
X174422316Y-77129633D01*
X174611653Y-77005164D01*
X174651877Y-76983747D01*
X174990432Y-76812844D01*
X175250413Y-76965203D01*
G37*
G36*
X180524048Y-98268585D02*
G01*
X180600657Y-98393620D01*
X180669994Y-98536009D01*
X180779502Y-98879687D01*
X180803757Y-99207386D01*
X180741578Y-99493447D01*
X180716511Y-99547607D01*
X180654979Y-99700688D01*
X180590153Y-99914487D01*
X180546025Y-100097686D01*
X180497915Y-100296309D01*
X180448323Y-100451540D01*
X180410749Y-100525677D01*
X180362580Y-100627013D01*
X180352921Y-100702085D01*
X180320787Y-100844956D01*
X180275608Y-100933254D01*
X180200382Y-101081766D01*
X180166096Y-101188538D01*
X180129840Y-101313087D01*
X180065615Y-101502955D01*
X179987266Y-101717238D01*
X179986554Y-101719112D01*
X179912991Y-101930138D01*
X179860177Y-102114780D01*
X179839232Y-102234010D01*
X179839213Y-102236180D01*
X179804784Y-102385921D01*
X179755410Y-102476168D01*
X179688143Y-102600765D01*
X179669792Y-102679864D01*
X179627226Y-102794674D01*
X179587279Y-102839736D01*
X179516036Y-102929338D01*
X179427543Y-103080037D01*
X179386245Y-103162713D01*
X179214878Y-103414463D01*
X178999041Y-103587959D01*
X178810518Y-103718725D01*
X178591559Y-103886686D01*
X178424753Y-104025373D01*
X178243013Y-104180527D01*
X178096423Y-104292975D01*
X177944554Y-104390067D01*
X177746972Y-104499156D01*
X177645233Y-104552723D01*
X177474730Y-104636836D01*
X177383702Y-104657729D01*
X177352390Y-104608613D01*
X177361035Y-104482696D01*
X177364622Y-104456291D01*
X177397975Y-104270895D01*
X177438961Y-104109234D01*
X177442118Y-104099550D01*
X177479508Y-103982153D01*
X177539053Y-103788931D01*
X177610438Y-103553500D01*
X177643555Y-103443145D01*
X177717036Y-103201450D01*
X177783863Y-102988721D01*
X177833642Y-102837758D01*
X177847863Y-102798325D01*
X177890106Y-102639024D01*
X177901044Y-102541471D01*
X177945321Y-102309519D01*
X178054735Y-102057946D01*
X178201796Y-101844943D01*
X178331518Y-101692773D01*
X178484905Y-101504686D01*
X178645759Y-101301641D01*
X178797885Y-101104596D01*
X178925084Y-100934511D01*
X179011161Y-100812344D01*
X179040112Y-100760152D01*
X179072711Y-100695183D01*
X179155410Y-100576275D01*
X179208254Y-100507501D01*
X179328315Y-100326987D01*
X179446845Y-100103629D01*
X179498437Y-99985579D01*
X179586297Y-99789998D01*
X179712288Y-99543001D01*
X179853211Y-99289453D01*
X179894628Y-99219325D01*
X180034420Y-98978839D01*
X180166488Y-98738513D01*
X180268173Y-98539972D01*
X180290815Y-98491572D01*
X180370114Y-98338396D01*
X180440886Y-98240096D01*
X180471646Y-98220448D01*
X180524048Y-98268585D01*
G37*
G36*
X154240894Y-92507853D02*
G01*
X154264180Y-92646623D01*
X154287268Y-92844401D01*
X154292082Y-92895277D01*
X154345722Y-93253752D01*
X154432890Y-93556100D01*
X154546395Y-93784157D01*
X154679048Y-93919764D01*
X154702593Y-93932137D01*
X154888906Y-93984895D01*
X155082531Y-93991159D01*
X155239380Y-93952500D01*
X155295393Y-93911010D01*
X155392868Y-93838462D01*
X155445637Y-93825392D01*
X155540630Y-93785363D01*
X155620065Y-93714159D01*
X155707342Y-93640816D01*
X155762607Y-93632159D01*
X155819827Y-93614781D01*
X155842767Y-93575760D01*
X155913330Y-93517716D01*
X155959425Y-93522285D01*
X156056788Y-93509576D01*
X156170282Y-93435077D01*
X156313022Y-93353868D01*
X156451429Y-93357292D01*
X156550243Y-93440653D01*
X156569041Y-93488198D01*
X156608747Y-93574409D01*
X156675261Y-93583213D01*
X156786740Y-93511021D01*
X156884397Y-93425842D01*
X157007859Y-93321873D01*
X157098650Y-93261101D01*
X157118443Y-93254606D01*
X157190497Y-93215833D01*
X157231338Y-93174686D01*
X157318906Y-93137472D01*
X157482816Y-93115361D01*
X157686238Y-93108463D01*
X157892346Y-93116886D01*
X158064312Y-93140738D01*
X158154147Y-93171968D01*
X158230903Y-93178544D01*
X158250601Y-93150554D01*
X158306484Y-93086783D01*
X158364285Y-93112892D01*
X158377640Y-93168988D01*
X158418965Y-93239594D01*
X158505491Y-93249687D01*
X158577415Y-93197527D01*
X158630120Y-93144644D01*
X158675565Y-93178788D01*
X158718116Y-93308636D01*
X158762141Y-93542864D01*
X158767120Y-93574465D01*
X158834595Y-94008482D01*
X158683429Y-94130982D01*
X158525056Y-94248259D01*
X158327293Y-94380543D01*
X158139464Y-94495684D01*
X158048126Y-94545098D01*
X157951076Y-94553894D01*
X157795153Y-94533260D01*
X157734781Y-94519543D01*
X157615210Y-94493733D01*
X157515341Y-94492764D01*
X157405662Y-94525280D01*
X157256661Y-94599929D01*
X157045377Y-94721516D01*
X156823387Y-94847960D01*
X156661803Y-94924898D01*
X156524365Y-94963548D01*
X156374812Y-94975132D01*
X156233193Y-94972816D01*
X156025815Y-94974202D01*
X155853981Y-94989688D01*
X155768066Y-95011106D01*
X155639878Y-95047415D01*
X155580786Y-95047747D01*
X155246177Y-94995549D01*
X155002407Y-94954265D01*
X154827921Y-94914835D01*
X154701162Y-94868199D01*
X154600572Y-94805298D01*
X154504597Y-94717072D01*
X154391678Y-94594461D01*
X154324090Y-94519589D01*
X154075729Y-94213191D01*
X153928341Y-93952654D01*
X153903665Y-93882471D01*
X153864495Y-93681831D01*
X153854222Y-93473911D01*
X153871428Y-93294849D01*
X153914697Y-93180786D01*
X153931811Y-93165090D01*
X153963088Y-93093487D01*
X153980965Y-92951274D01*
X153982584Y-92889072D01*
X154010984Y-92701296D01*
X154083821Y-92548062D01*
X154182553Y-92462981D01*
X154221789Y-92455505D01*
X154240894Y-92507853D01*
G37*
G36*
X183045158Y-77220813D02*
G01*
X183090328Y-77330544D01*
X183090673Y-77350038D01*
X183060839Y-77492003D01*
X183007078Y-77615055D01*
X182953668Y-77765547D01*
X182924927Y-77956932D01*
X182923483Y-77998487D01*
X182929144Y-78131598D01*
X182962527Y-78229470D01*
X183044164Y-78323557D01*
X183194589Y-78445309D01*
X183235393Y-78476244D01*
X183430196Y-78640575D01*
X183526935Y-78772607D01*
X183531356Y-78887532D01*
X183449202Y-79000542D01*
X183437709Y-79011182D01*
X183361358Y-79065530D01*
X183268834Y-79085695D01*
X183124730Y-79074744D01*
X182978493Y-79050964D01*
X182744259Y-79022681D01*
X182561550Y-79025547D01*
X182500146Y-79039445D01*
X182310099Y-79157958D01*
X182122840Y-79352857D01*
X181969124Y-79589850D01*
X181928952Y-79676365D01*
X181840249Y-79885402D01*
X181773067Y-80018640D01*
X181706697Y-80106338D01*
X181620431Y-80178755D01*
X181552931Y-80225807D01*
X181252357Y-80378416D01*
X180915572Y-80443284D01*
X180609775Y-80436800D01*
X180397603Y-80425159D01*
X180249042Y-80444232D01*
X180115665Y-80502831D01*
X180059447Y-80536942D01*
X179689745Y-80814967D01*
X179422572Y-81113072D01*
X179261853Y-81425733D01*
X179211348Y-81729940D01*
X179171817Y-81959890D01*
X179067810Y-82219047D01*
X178921204Y-82461956D01*
X178784242Y-82617403D01*
X178648568Y-82710667D01*
X178461478Y-82805781D01*
X178373584Y-82841646D01*
X178174955Y-82927075D01*
X178028323Y-83028084D01*
X177908393Y-83171142D01*
X177789871Y-83382717D01*
X177723503Y-83521885D01*
X177631415Y-83714538D01*
X177562831Y-83825116D01*
X177494555Y-83875709D01*
X177403387Y-83888408D01*
X177339690Y-83887384D01*
X177164489Y-83869954D01*
X176939239Y-83831851D01*
X176787356Y-83798861D01*
X176605374Y-83752731D01*
X176474414Y-83715370D01*
X176427332Y-83697257D01*
X176445055Y-83642910D01*
X176509519Y-83518745D01*
X176605246Y-83350656D01*
X176716758Y-83164537D01*
X176828576Y-82986281D01*
X176925222Y-82841781D01*
X176986331Y-82762113D01*
X177053201Y-82662948D01*
X177144602Y-82495023D01*
X177240367Y-82295505D01*
X177322781Y-82092227D01*
X177379126Y-81893478D01*
X177417213Y-81661902D01*
X177444854Y-81360142D01*
X177449246Y-81296628D01*
X177471791Y-81015428D01*
X177499353Y-80754085D01*
X177527918Y-80547391D01*
X177546514Y-80453262D01*
X177676284Y-80162653D01*
X177899822Y-79895234D01*
X178196999Y-79666520D01*
X178547683Y-79492025D01*
X178929114Y-79387697D01*
X179384406Y-79300897D01*
X179772954Y-79199745D01*
X180066722Y-79100776D01*
X180261937Y-79036688D01*
X180432200Y-78994622D01*
X180510507Y-78984943D01*
X180816286Y-78934395D01*
X181134947Y-78780697D01*
X181471962Y-78520767D01*
X181662796Y-78335884D01*
X181866937Y-78117142D01*
X182064824Y-77891391D01*
X182227051Y-77692763D01*
X182290661Y-77607102D01*
X182446689Y-77426187D01*
X182619760Y-77290800D01*
X182790267Y-77207242D01*
X182938602Y-77181813D01*
X183045158Y-77220813D01*
G37*
G36*
X179942755Y-103181088D02*
G01*
X179953383Y-103316970D01*
X179954967Y-103507241D01*
X179948496Y-103722282D01*
X179934959Y-103932476D01*
X179915346Y-104108207D01*
X179890645Y-104219855D01*
X179885269Y-104231729D01*
X179851681Y-104346435D01*
X179823966Y-104538203D01*
X179807133Y-104769941D01*
X179805365Y-104823508D01*
X179795772Y-105047563D01*
X179780751Y-105228684D01*
X179763118Y-105335610D01*
X179758128Y-105347945D01*
X179772525Y-105427659D01*
X179866555Y-105564968D01*
X180029986Y-105747064D01*
X180235796Y-105945842D01*
X180526697Y-106219478D01*
X180742577Y-106442429D01*
X180899175Y-106633252D01*
X181012233Y-106810501D01*
X181071470Y-106930923D01*
X181177520Y-107228760D01*
X181203506Y-107477607D01*
X181152000Y-107707239D01*
X181140869Y-107734598D01*
X181089814Y-107867288D01*
X181065737Y-107952359D01*
X181048714Y-108044088D01*
X181017082Y-108187101D01*
X181015755Y-108192763D01*
X181001394Y-108351816D01*
X181027748Y-108474501D01*
X181051602Y-108616742D01*
X180989749Y-108755344D01*
X180867848Y-108861570D01*
X180711556Y-108906685D01*
X180646530Y-108901454D01*
X180591637Y-108927725D01*
X180594207Y-108961612D01*
X180662828Y-109013941D01*
X180794183Y-109036814D01*
X180800037Y-109036853D01*
X180932961Y-109018558D01*
X180979718Y-108955078D01*
X180980786Y-108936965D01*
X180998456Y-108855019D01*
X181058057Y-108854187D01*
X181169478Y-108938177D01*
X181285260Y-109051123D01*
X181438908Y-109206698D01*
X181585820Y-109352705D01*
X181637096Y-109402636D01*
X181741669Y-109528113D01*
X181778577Y-109625844D01*
X181744891Y-109674697D01*
X181673788Y-109667276D01*
X181548594Y-109679115D01*
X181495563Y-109720508D01*
X181380220Y-109791537D01*
X181208157Y-109784767D01*
X180967221Y-109699483D01*
X180941685Y-109687905D01*
X180780076Y-109589137D01*
X180613663Y-109449509D01*
X180469611Y-109296811D01*
X180375081Y-109158833D01*
X180352921Y-109085552D01*
X180329300Y-108989112D01*
X180273637Y-108855973D01*
X180172862Y-108620597D01*
X180119577Y-108429518D01*
X180119195Y-108304960D01*
X180133455Y-108280274D01*
X180153143Y-108187610D01*
X180120458Y-108061541D01*
X180073117Y-107893211D01*
X180040249Y-107691120D01*
X180036852Y-107653599D01*
X180010668Y-107426532D01*
X179958224Y-107267211D01*
X179894008Y-107181797D01*
X180495617Y-107181797D01*
X180500143Y-107234394D01*
X180520788Y-107238875D01*
X180578912Y-107197441D01*
X180581235Y-107181797D01*
X180561761Y-107126202D01*
X180556065Y-107124718D01*
X180507333Y-107164715D01*
X180495617Y-107181797D01*
X179894008Y-107181797D01*
X179856666Y-107132129D01*
X179683143Y-106977782D01*
X179680892Y-106975932D01*
X179451185Y-106781061D01*
X179229442Y-106581992D01*
X179032352Y-106394952D01*
X178876603Y-106236168D01*
X178778882Y-106121867D01*
X178753680Y-106074344D01*
X178723091Y-105994649D01*
X178645847Y-105858494D01*
X178591080Y-105773857D01*
X179572846Y-105773857D01*
X179580681Y-105807790D01*
X179610898Y-105811909D01*
X179657880Y-105791025D01*
X179648951Y-105773857D01*
X179581212Y-105767026D01*
X179572846Y-105773857D01*
X178591080Y-105773857D01*
X178582444Y-105760511D01*
X178483707Y-105584787D01*
X178422292Y-105417718D01*
X178412247Y-105348627D01*
X178387110Y-105187831D01*
X178325642Y-105007091D01*
X178316144Y-104986388D01*
X178220041Y-104784858D01*
X178416031Y-104607665D01*
X178550003Y-104489809D01*
X178738928Y-104327725D01*
X178949647Y-104149764D01*
X179030219Y-104082475D01*
X179223300Y-103913605D01*
X179388486Y-103754189D01*
X179500799Y-103628984D01*
X179528319Y-103588813D01*
X179610579Y-103462283D01*
X179718760Y-103323593D01*
X179825926Y-103204181D01*
X179905145Y-103135483D01*
X179922093Y-103129213D01*
X179942755Y-103181088D01*
G37*
G36*
X158481970Y-76784283D02*
G01*
X158647390Y-76849597D01*
X158768539Y-76907920D01*
X159060070Y-77117389D01*
X159283108Y-77411112D01*
X159407853Y-77686648D01*
X159533279Y-77896311D01*
X159702004Y-78051153D01*
X159830934Y-78148361D01*
X159908555Y-78222049D01*
X159918763Y-78241170D01*
X159968427Y-78269132D01*
X160088065Y-78280970D01*
X160089999Y-78280973D01*
X160215226Y-78259756D01*
X160261235Y-78209011D01*
X160312186Y-78106094D01*
X160444278Y-78002341D01*
X160626371Y-77917524D01*
X160784073Y-77877070D01*
X160922892Y-77860549D01*
X161019724Y-77877901D01*
X161111807Y-77946874D01*
X161236381Y-78085218D01*
X161247122Y-78097773D01*
X161378749Y-78236847D01*
X161492223Y-78330961D01*
X161549946Y-78357078D01*
X161616503Y-78404426D01*
X161631123Y-78467389D01*
X161679066Y-78566320D01*
X161787103Y-78627500D01*
X161901543Y-78622417D01*
X161912157Y-78616626D01*
X161992760Y-78620760D01*
X162118489Y-78674890D01*
X162134708Y-78684290D01*
X162276374Y-78768697D01*
X162468318Y-78882753D01*
X162620273Y-78972888D01*
X162800942Y-79089096D01*
X162901679Y-79184199D01*
X162946455Y-79284378D01*
X162954750Y-79338255D01*
X163027101Y-79526055D01*
X163190013Y-79668456D01*
X163423631Y-79749045D01*
X163457809Y-79754081D01*
X163668295Y-79831422D01*
X163834642Y-79986005D01*
X163931762Y-80186792D01*
X163943403Y-80354831D01*
X163934704Y-80458381D01*
X163943335Y-80471286D01*
X163949213Y-80454718D01*
X163989449Y-80372079D01*
X164038719Y-80376946D01*
X164103526Y-80476308D01*
X164190374Y-80677154D01*
X164214791Y-80740111D01*
X164314424Y-81077560D01*
X164327745Y-81349672D01*
X164254610Y-81565992D01*
X164201061Y-81639100D01*
X164118066Y-81755542D01*
X164028051Y-81910960D01*
X163953127Y-82063421D01*
X163915406Y-82170997D01*
X163914269Y-82182971D01*
X163950946Y-82242154D01*
X164046956Y-82357176D01*
X164177226Y-82498580D01*
X164429664Y-82783928D01*
X164603799Y-83029251D01*
X164693816Y-83225380D01*
X164703668Y-83328464D01*
X164677540Y-83394826D01*
X164607562Y-83455492D01*
X164474388Y-83521331D01*
X164258674Y-83603210D01*
X164142584Y-83643699D01*
X163908880Y-83722762D01*
X163715239Y-83785884D01*
X163587222Y-83824865D01*
X163551340Y-83833371D01*
X163527120Y-83789096D01*
X163538724Y-83691673D01*
X163530582Y-83507403D01*
X163487834Y-83422118D01*
X163420611Y-83288476D01*
X163400561Y-83194055D01*
X163370880Y-83072982D01*
X163300093Y-82939982D01*
X163215586Y-82838513D01*
X163158053Y-82809213D01*
X163075074Y-82764961D01*
X162971882Y-82658557D01*
X162880161Y-82529529D01*
X162831595Y-82417405D01*
X162829844Y-82399747D01*
X162842202Y-82290705D01*
X162873766Y-82119367D01*
X162896412Y-82015525D01*
X162924798Y-81887144D01*
X162936046Y-81786216D01*
X162923625Y-81687054D01*
X162881008Y-81563965D01*
X162801664Y-81391262D01*
X162679063Y-81143253D01*
X162670177Y-81125392D01*
X162573619Y-80963480D01*
X162460701Y-80818388D01*
X162357652Y-80720844D01*
X162304744Y-80697302D01*
X162217262Y-80662697D01*
X162070582Y-80572074D01*
X161890862Y-80445219D01*
X161704259Y-80301920D01*
X161536931Y-80161964D01*
X161529722Y-80155055D01*
X163743033Y-80155055D01*
X163771572Y-80183595D01*
X163800112Y-80155055D01*
X163771572Y-80126516D01*
X163743033Y-80155055D01*
X161529722Y-80155055D01*
X161415034Y-80045139D01*
X161373778Y-79993054D01*
X161282711Y-79888249D01*
X163525541Y-79888249D01*
X163604413Y-79979742D01*
X163700344Y-80060143D01*
X163740481Y-80049656D01*
X163743033Y-80026089D01*
X163700245Y-79965597D01*
X163628876Y-79911448D01*
X163534292Y-79863759D01*
X163525541Y-79888249D01*
X161282711Y-79888249D01*
X161271041Y-79874818D01*
X161168292Y-79859283D01*
X161077621Y-79851073D01*
X161060336Y-79801052D01*
X161030311Y-79742679D01*
X160925112Y-79748608D01*
X160914222Y-79751262D01*
X160672496Y-79769051D01*
X160431075Y-79694205D01*
X160174031Y-79520520D01*
X160059559Y-79418478D01*
X159878169Y-79228575D01*
X159771540Y-79075733D01*
X159747527Y-78997097D01*
X159725703Y-78897937D01*
X159690449Y-78870786D01*
X159639810Y-78824554D01*
X159633370Y-78785168D01*
X159620100Y-78713892D01*
X159564622Y-78713491D01*
X159443437Y-78783969D01*
X159441538Y-78785212D01*
X159275577Y-78841723D01*
X159077486Y-78842066D01*
X158906480Y-78788304D01*
X158873402Y-78765420D01*
X158760001Y-78731117D01*
X158546100Y-78728187D01*
X158410194Y-78738115D01*
X158206090Y-78754533D01*
X158092148Y-78752983D01*
X158045205Y-78729229D01*
X158042096Y-78679038D01*
X158043557Y-78671095D01*
X158099528Y-78585412D01*
X158099549Y-78585392D01*
X159405056Y-78585392D01*
X159425940Y-78632375D01*
X159443108Y-78623445D01*
X159449939Y-78555706D01*
X159443108Y-78547340D01*
X159409175Y-78555175D01*
X159405056Y-78585392D01*
X158099549Y-78585392D01*
X158223683Y-78469804D01*
X158349100Y-78377025D01*
X158553822Y-78239080D01*
X158611935Y-78195667D01*
X158852158Y-78195667D01*
X158870442Y-78228666D01*
X158891348Y-78242920D01*
X158972707Y-78291453D01*
X159009708Y-78280391D01*
X159034044Y-78242920D01*
X159015083Y-78199749D01*
X158937525Y-78186716D01*
X158852158Y-78195667D01*
X158611935Y-78195667D01*
X158663290Y-78157302D01*
X159290898Y-78157302D01*
X159319438Y-78185842D01*
X159519213Y-78185842D01*
X159538687Y-78241436D01*
X159544384Y-78242920D01*
X159593116Y-78202923D01*
X159604831Y-78185842D01*
X159600305Y-78133245D01*
X159579660Y-78128763D01*
X159521536Y-78170197D01*
X159519213Y-78185842D01*
X159319438Y-78185842D01*
X159347977Y-78157302D01*
X159319438Y-78128763D01*
X159290898Y-78157302D01*
X158663290Y-78157302D01*
X158678406Y-78146010D01*
X158736939Y-78078242D01*
X158743506Y-78016201D01*
X158712194Y-77940313D01*
X158691776Y-77900842D01*
X158632027Y-77768856D01*
X158620570Y-77729213D01*
X159005505Y-77729213D01*
X159024979Y-77784807D01*
X159030676Y-77786291D01*
X159079408Y-77746294D01*
X159091123Y-77729213D01*
X159086597Y-77676615D01*
X159065952Y-77672134D01*
X159007828Y-77713568D01*
X159005505Y-77729213D01*
X158620570Y-77729213D01*
X158605993Y-77678773D01*
X158605954Y-77676951D01*
X158577351Y-77599892D01*
X158503680Y-77462684D01*
X158434718Y-77349009D01*
X158321094Y-77133757D01*
X158267635Y-76951559D01*
X158276309Y-76821044D01*
X158349085Y-76760841D01*
X158372372Y-76758875D01*
X158481970Y-76784283D01*
G37*
G36*
X171055741Y-78943824D02*
G01*
X171136025Y-78985605D01*
X171221160Y-79037049D01*
X171262084Y-79001617D01*
X171262914Y-78999213D01*
X171323190Y-78945082D01*
X171418474Y-78929174D01*
X171493307Y-78954747D01*
X171505730Y-78984943D01*
X171554134Y-79029872D01*
X171634157Y-79042995D01*
X171753024Y-79071935D01*
X171922939Y-79145412D01*
X172047977Y-79213257D01*
X172232827Y-79307602D01*
X172403496Y-79369491D01*
X172486621Y-79383520D01*
X172663292Y-79405783D01*
X172788357Y-79440948D01*
X172908049Y-79456299D01*
X173105575Y-79452039D01*
X173347032Y-79431935D01*
X173598517Y-79399756D01*
X173826128Y-79359272D01*
X173995960Y-79314251D01*
X174023218Y-79303678D01*
X174087587Y-79303307D01*
X174140052Y-79379610D01*
X174187049Y-79522271D01*
X174223716Y-79695212D01*
X174232285Y-79831776D01*
X174225747Y-79867360D01*
X174136175Y-79977151D01*
X173976401Y-80081520D01*
X173789058Y-80157709D01*
X173633701Y-80183381D01*
X173505236Y-80203667D01*
X173482648Y-80262096D01*
X173565329Y-80355663D01*
X173685507Y-80440448D01*
X173846949Y-80543228D01*
X173991461Y-80636034D01*
X173997385Y-80639868D01*
X174118768Y-80757968D01*
X174194190Y-80882452D01*
X174257402Y-80994386D01*
X174315696Y-81039774D01*
X174348018Y-81082402D01*
X174335134Y-81183296D01*
X174289114Y-81301973D01*
X174222028Y-81397950D01*
X174204461Y-81412871D01*
X174138083Y-81486228D01*
X174173402Y-81537305D01*
X174313761Y-81567321D01*
X174562503Y-81577495D01*
X174654325Y-81576923D01*
X174976678Y-81571978D01*
X175206454Y-81564243D01*
X175365213Y-81548832D01*
X175474514Y-81520863D01*
X175555918Y-81475451D01*
X175630987Y-81407711D01*
X175694164Y-81341367D01*
X175817044Y-81192034D01*
X175851617Y-81094394D01*
X175837684Y-81061056D01*
X175816191Y-80984718D01*
X175869363Y-80945110D01*
X175958349Y-80966882D01*
X175971414Y-80976201D01*
X176240717Y-81207880D01*
X176493597Y-81463457D01*
X176715120Y-81723950D01*
X176890352Y-81970376D01*
X177004360Y-82183751D01*
X177042359Y-82337568D01*
X177005072Y-82448109D01*
X176889328Y-82609045D01*
X176689299Y-82828106D01*
X176618872Y-82899434D01*
X176436065Y-83075018D01*
X176276503Y-83215071D01*
X176160644Y-83302380D01*
X176115611Y-83322920D01*
X176026524Y-83347879D01*
X175871803Y-83413104D01*
X175697187Y-83498296D01*
X175301232Y-83667561D01*
X174829604Y-83810389D01*
X174319658Y-83916364D01*
X174074269Y-83950845D01*
X173474307Y-84033253D01*
X172867330Y-84137913D01*
X172305129Y-84255592D01*
X172133595Y-84296875D01*
X171821141Y-84360190D01*
X171472639Y-84406667D01*
X171118867Y-84434531D01*
X170790603Y-84442005D01*
X170518626Y-84427314D01*
X170364157Y-84398973D01*
X170215119Y-84361565D01*
X170013815Y-84323190D01*
X169744197Y-84281320D01*
X169390221Y-84233424D01*
X169022808Y-84187520D01*
X168793443Y-84156990D01*
X172039058Y-84156990D01*
X172047977Y-84179100D01*
X172099268Y-84233552D01*
X172108424Y-84236179D01*
X172132940Y-84192018D01*
X172133595Y-84179100D01*
X172089715Y-84124215D01*
X172073148Y-84122022D01*
X172039058Y-84156990D01*
X168793443Y-84156990D01*
X168752957Y-84151601D01*
X168478731Y-84110197D01*
X168258083Y-84072074D01*
X168252247Y-84070947D01*
X168069168Y-84039805D01*
X167808617Y-84001176D01*
X167506578Y-83960173D01*
X167224831Y-83924967D01*
X166872758Y-83882605D01*
X166616823Y-83850118D01*
X166439762Y-83824277D01*
X166324310Y-83801851D01*
X166253202Y-83779610D01*
X166209175Y-83754325D01*
X166194911Y-83741497D01*
X172095542Y-83741497D01*
X172103378Y-83775430D01*
X172133595Y-83779550D01*
X172180577Y-83758665D01*
X172171647Y-83741497D01*
X172103908Y-83734666D01*
X172095542Y-83741497D01*
X166194911Y-83741497D01*
X166181993Y-83729880D01*
X166070104Y-83671101D01*
X166027464Y-83665392D01*
X165917377Y-83634156D01*
X165796295Y-83566482D01*
X165661094Y-83500058D01*
X165551877Y-83485028D01*
X165430635Y-83466932D01*
X165324279Y-83396830D01*
X165284157Y-83315931D01*
X165330490Y-83271462D01*
X165369775Y-83265842D01*
X165443509Y-83251692D01*
X165435310Y-83196315D01*
X165360956Y-83099774D01*
X165285376Y-82961617D01*
X165247112Y-82812198D01*
X165212431Y-82691687D01*
X168423482Y-82691687D01*
X168464917Y-82749811D01*
X168480561Y-82752134D01*
X168536156Y-82732660D01*
X168537640Y-82726963D01*
X168497643Y-82678231D01*
X168480561Y-82666516D01*
X168427964Y-82671041D01*
X168423482Y-82691687D01*
X165212431Y-82691687D01*
X165184583Y-82594920D01*
X165088843Y-82428688D01*
X168670823Y-82428688D01*
X168678658Y-82462621D01*
X168708876Y-82466741D01*
X168755858Y-82445856D01*
X168746928Y-82428688D01*
X168679189Y-82421857D01*
X168670823Y-82428688D01*
X165088843Y-82428688D01*
X165062763Y-82383405D01*
X164952594Y-82266965D01*
X170249999Y-82266965D01*
X170278539Y-82295505D01*
X170307078Y-82266965D01*
X170278539Y-82238426D01*
X170249999Y-82266965D01*
X164952594Y-82266965D01*
X164945641Y-82259616D01*
X164896615Y-82201339D01*
X164913508Y-82124008D01*
X164964659Y-82039133D01*
X164994551Y-81956269D01*
X168765954Y-81956269D01*
X168796016Y-82007965D01*
X168875246Y-81971887D01*
X168951671Y-81895954D01*
X174131348Y-81895954D01*
X174150822Y-81951549D01*
X174156518Y-81953033D01*
X174205250Y-81913036D01*
X174216966Y-81895954D01*
X175044606Y-81895954D01*
X175065490Y-81942936D01*
X175082658Y-81934007D01*
X175089490Y-81866268D01*
X175082658Y-81857902D01*
X175048725Y-81865737D01*
X175044606Y-81895954D01*
X174216966Y-81895954D01*
X174212440Y-81843357D01*
X174191795Y-81838875D01*
X174133671Y-81880309D01*
X174131348Y-81895954D01*
X168951671Y-81895954D01*
X168957132Y-81890528D01*
X169024657Y-81796797D01*
X169037721Y-81749144D01*
X168979732Y-81759190D01*
X168886406Y-81819354D01*
X168800830Y-81896799D01*
X168765954Y-81956269D01*
X164994551Y-81956269D01*
X165042060Y-81824569D01*
X165040081Y-81724718D01*
X173731797Y-81724718D01*
X173752681Y-81771700D01*
X173769167Y-81763126D01*
X174612656Y-81763126D01*
X174657408Y-81825712D01*
X174703711Y-81838875D01*
X174732281Y-81796926D01*
X174722901Y-81753585D01*
X174668735Y-81695916D01*
X174638143Y-81700451D01*
X174612656Y-81763126D01*
X173769167Y-81763126D01*
X173769850Y-81762771D01*
X173776681Y-81695032D01*
X173769850Y-81686666D01*
X173735916Y-81694501D01*
X173731797Y-81724718D01*
X165040081Y-81724718D01*
X165039670Y-81704011D01*
X165038489Y-81639100D01*
X169165505Y-81639100D01*
X169194044Y-81667640D01*
X169222584Y-81639100D01*
X169194044Y-81610561D01*
X169165505Y-81639100D01*
X165038489Y-81639100D01*
X165036745Y-81543255D01*
X165066667Y-81421351D01*
X165123601Y-81275972D01*
X165144885Y-81193225D01*
X165149122Y-81182471D01*
X174017190Y-81182471D01*
X174045730Y-81211010D01*
X174074269Y-81182471D01*
X174045730Y-81153932D01*
X174017190Y-81182471D01*
X165149122Y-81182471D01*
X165187104Y-81086069D01*
X165226512Y-81049476D01*
X165280503Y-80983886D01*
X165284157Y-80957097D01*
X165334905Y-80822087D01*
X165474649Y-80667056D01*
X165684640Y-80509705D01*
X165869426Y-80404598D01*
X166074491Y-80309267D01*
X166212571Y-80268959D01*
X166312370Y-80276441D01*
X166338181Y-80286486D01*
X166495785Y-80310539D01*
X166557811Y-80288855D01*
X166624403Y-80256693D01*
X166646716Y-80271535D01*
X166623922Y-80351862D01*
X166555194Y-80516157D01*
X166546766Y-80535604D01*
X166446467Y-80721081D01*
X166326281Y-80883855D01*
X166289912Y-80921297D01*
X166190521Y-81023938D01*
X166141442Y-81095591D01*
X166140336Y-81101721D01*
X166193545Y-81117072D01*
X166337893Y-81126692D01*
X166550468Y-81129693D01*
X166773446Y-81126221D01*
X167052981Y-81116933D01*
X167247042Y-81103072D01*
X167384295Y-81078046D01*
X167493404Y-81035266D01*
X167603035Y-80968139D01*
X167672435Y-80919525D01*
X167882717Y-80759718D01*
X168009129Y-80634136D01*
X168051733Y-80554606D01*
X173446404Y-80554606D01*
X173492093Y-80630279D01*
X173532022Y-80640224D01*
X173607695Y-80594534D01*
X173617640Y-80554606D01*
X173571950Y-80478933D01*
X173532022Y-80468988D01*
X173456349Y-80514677D01*
X173446404Y-80554606D01*
X168051733Y-80554606D01*
X168068522Y-80523266D01*
X168079195Y-80448529D01*
X168120130Y-80356307D01*
X168151037Y-80316778D01*
X172951722Y-80316778D01*
X172959557Y-80350711D01*
X172989775Y-80354831D01*
X173036757Y-80333946D01*
X173027827Y-80316778D01*
X172960088Y-80309947D01*
X172951722Y-80316778D01*
X168151037Y-80316778D01*
X168224872Y-80222344D01*
X168349621Y-80095826D01*
X168533777Y-79926741D01*
X173903033Y-79926741D01*
X173931572Y-79955280D01*
X173960112Y-79926741D01*
X173931572Y-79898201D01*
X173903033Y-79926741D01*
X168533777Y-79926741D01*
X168618231Y-79849199D01*
X168467022Y-79811248D01*
X168338414Y-79792978D01*
X168267481Y-79803168D01*
X168193624Y-79809406D01*
X168041121Y-79801933D01*
X167843971Y-79784485D01*
X167636172Y-79760798D01*
X167451724Y-79734609D01*
X167324625Y-79709653D01*
X167288598Y-79695602D01*
X167300231Y-79638504D01*
X167346556Y-79570349D01*
X167433582Y-79444652D01*
X167510639Y-79308328D01*
X167617518Y-79157820D01*
X167753108Y-79031647D01*
X167854089Y-78971432D01*
X167963394Y-78942676D01*
X168117156Y-78940664D01*
X168320747Y-78957551D01*
X168555366Y-78989490D01*
X168770869Y-79033024D01*
X168912529Y-79075860D01*
X169222256Y-79152185D01*
X169579404Y-79153286D01*
X169946430Y-79080186D01*
X170050224Y-79044927D01*
X170327202Y-78963079D01*
X170607121Y-78917852D01*
X170859971Y-78910888D01*
X171055741Y-78943824D01*
G37*
G36*
X165254151Y-84062058D02*
G01*
X165590815Y-84094340D01*
X165883846Y-84147454D01*
X166100784Y-84218110D01*
X166124309Y-84229781D01*
X166213781Y-84251391D01*
X166395154Y-84276723D01*
X166646303Y-84303975D01*
X166945107Y-84331347D01*
X167269443Y-84357035D01*
X167597186Y-84379239D01*
X167906215Y-84396157D01*
X168174405Y-84405986D01*
X168309325Y-84407732D01*
X168592944Y-84426097D01*
X168944335Y-84476972D01*
X169324074Y-84553616D01*
X169650673Y-84637106D01*
X169845195Y-84688015D01*
X170026665Y-84728567D01*
X170050224Y-84732998D01*
X170203460Y-84778476D01*
X170307078Y-84834791D01*
X170390219Y-84887901D01*
X170501348Y-84923403D01*
X170658780Y-84942768D01*
X170880831Y-84947467D01*
X171185819Y-84938972D01*
X171448651Y-84926476D01*
X171782679Y-84911801D01*
X172020163Y-84908740D01*
X172178189Y-84917973D01*
X172273844Y-84940180D01*
X172309325Y-84960766D01*
X172415599Y-85023001D01*
X172468083Y-85035280D01*
X172546400Y-85081108D01*
X172569583Y-85120898D01*
X172646006Y-85187545D01*
X172738375Y-85206516D01*
X172839625Y-85222004D01*
X172950978Y-85278229D01*
X173094740Y-85389829D01*
X173290589Y-85568952D01*
X173434553Y-85689931D01*
X173627412Y-85832557D01*
X173773104Y-85930630D01*
X173998897Y-86100881D01*
X174134413Y-86270741D01*
X174166302Y-86338756D01*
X174234245Y-86501412D01*
X174295008Y-86630559D01*
X174302855Y-86645106D01*
X174324481Y-86747363D01*
X174297696Y-86779199D01*
X174281881Y-86844765D01*
X174334170Y-86922242D01*
X174402947Y-87069674D01*
X174399818Y-87159160D01*
X174390342Y-87279092D01*
X174393941Y-87472307D01*
X174409769Y-87698785D01*
X174411620Y-87717977D01*
X174419715Y-88166118D01*
X174343775Y-88555804D01*
X174177317Y-88912348D01*
X174062937Y-89079714D01*
X173823864Y-89336329D01*
X173559211Y-89516951D01*
X173286993Y-89616622D01*
X173025227Y-89630383D01*
X172791928Y-89553274D01*
X172673875Y-89462098D01*
X172555858Y-89375824D01*
X172485451Y-89386705D01*
X172394256Y-89411998D01*
X172355039Y-89397550D01*
X172261552Y-89371453D01*
X172093567Y-89349917D01*
X171925087Y-89339321D01*
X171667629Y-89321330D01*
X171516744Y-89288070D01*
X171465611Y-89237487D01*
X171467749Y-89230561D01*
X171562808Y-89230561D01*
X171591348Y-89259100D01*
X171619887Y-89230561D01*
X171591348Y-89202022D01*
X171562808Y-89230561D01*
X171467749Y-89230561D01*
X171475931Y-89204058D01*
X171461361Y-89151009D01*
X171448911Y-89144943D01*
X172076516Y-89144943D01*
X172119952Y-89200363D01*
X172133595Y-89202022D01*
X172170009Y-89173482D01*
X172361909Y-89173482D01*
X172390449Y-89202022D01*
X172418988Y-89173482D01*
X172390449Y-89144943D01*
X172361909Y-89173482D01*
X172170009Y-89173482D01*
X172189015Y-89158586D01*
X172190673Y-89144943D01*
X172147238Y-89089523D01*
X172133595Y-89087864D01*
X172078175Y-89131300D01*
X172076516Y-89144943D01*
X171448911Y-89144943D01*
X171385371Y-89113985D01*
X171300644Y-89112595D01*
X171273717Y-89128802D01*
X171231015Y-89230768D01*
X171196320Y-89422028D01*
X171172391Y-89677837D01*
X171161990Y-89973452D01*
X171162652Y-90124408D01*
X171158260Y-90373710D01*
X171139317Y-90611185D01*
X171109887Y-90786409D01*
X171109020Y-90789673D01*
X171092450Y-90857892D01*
X171078923Y-90935016D01*
X171068237Y-91032068D01*
X171060188Y-91160068D01*
X171054575Y-91330037D01*
X171051193Y-91552997D01*
X171049840Y-91839969D01*
X171050313Y-92201973D01*
X171052409Y-92650032D01*
X171055925Y-93195166D01*
X171058389Y-93539999D01*
X171059202Y-94071649D01*
X171053260Y-94502786D01*
X171040687Y-94829789D01*
X171021607Y-95049038D01*
X171003890Y-95138201D01*
X170967215Y-95308079D01*
X170933649Y-95567617D01*
X170904334Y-95892338D01*
X170880410Y-96257763D01*
X170863019Y-96639412D01*
X170853304Y-97012806D01*
X170852405Y-97353468D01*
X170861465Y-97636917D01*
X170878778Y-97820898D01*
X170903498Y-98058501D01*
X170921861Y-98382964D01*
X170933652Y-98767156D01*
X170938657Y-99183946D01*
X170936661Y-99606202D01*
X170927450Y-100006793D01*
X170910808Y-100358588D01*
X170899993Y-100503595D01*
X170881173Y-100725191D01*
X170869364Y-100892360D01*
X170863586Y-101041482D01*
X170862857Y-101208934D01*
X170866195Y-101431096D01*
X170869968Y-101616628D01*
X170873820Y-102078870D01*
X170867352Y-102547905D01*
X170851660Y-102997947D01*
X170827841Y-103403211D01*
X170796991Y-103737910D01*
X170772329Y-103913356D01*
X170734454Y-104202526D01*
X170736857Y-104419576D01*
X170760516Y-104541222D01*
X170801506Y-104740797D01*
X170820340Y-104934878D01*
X170820468Y-104946803D01*
X170841279Y-105092766D01*
X170913596Y-105160761D01*
X170934943Y-105167506D01*
X171027408Y-105209870D01*
X171049100Y-105241143D01*
X171095327Y-105279278D01*
X171219584Y-105269704D01*
X171219738Y-105269662D01*
X172761460Y-105269662D01*
X172789999Y-105298201D01*
X172818539Y-105269662D01*
X172789999Y-105241123D01*
X172761460Y-105269662D01*
X171219738Y-105269662D01*
X171400233Y-105220377D01*
X171615640Y-105139252D01*
X171844166Y-105034287D01*
X172064176Y-104913436D01*
X172219213Y-104810883D01*
X172443091Y-104684964D01*
X172755810Y-104562076D01*
X173132119Y-104449062D01*
X173546766Y-104352763D01*
X173974498Y-104280021D01*
X174315635Y-104242879D01*
X174527643Y-104218207D01*
X174642351Y-104179965D01*
X174676494Y-104119877D01*
X174667239Y-104078621D01*
X174759213Y-104078621D01*
X174787355Y-104162314D01*
X174843748Y-104194914D01*
X174864808Y-104184216D01*
X174857269Y-104128089D01*
X175101685Y-104128089D01*
X175130224Y-104156628D01*
X175158763Y-104128089D01*
X175130224Y-104099550D01*
X175101685Y-104128089D01*
X174857269Y-104128089D01*
X174856931Y-104125575D01*
X174826756Y-104087183D01*
X174769290Y-104055005D01*
X174759213Y-104078621D01*
X174667239Y-104078621D01*
X174665300Y-104069976D01*
X174685778Y-103985536D01*
X174767680Y-103935657D01*
X174910188Y-103852530D01*
X175010644Y-103763628D01*
X175116492Y-103674696D01*
X175198423Y-103642920D01*
X175294153Y-103618459D01*
X175444473Y-103556655D01*
X175517779Y-103521287D01*
X175640494Y-103438812D01*
X175810926Y-103297180D01*
X176012236Y-103113498D01*
X176227584Y-102904871D01*
X176440132Y-102688404D01*
X176633039Y-102481205D01*
X176789469Y-102300378D01*
X176892580Y-102163029D01*
X176925873Y-102090896D01*
X176956994Y-101988104D01*
X176983655Y-101960105D01*
X177037558Y-101891257D01*
X177112609Y-101754435D01*
X177154156Y-101665748D01*
X177257192Y-101465817D01*
X177377258Y-101277079D01*
X177416313Y-101225753D01*
X177606507Y-100985175D01*
X177813727Y-100709630D01*
X178026885Y-100415397D01*
X178234890Y-100118755D01*
X178426653Y-99835983D01*
X178591084Y-99583359D01*
X178717092Y-99377163D01*
X178793587Y-99233674D01*
X178811797Y-99177332D01*
X178836114Y-99067574D01*
X178903871Y-98876169D01*
X179007279Y-98623486D01*
X179123177Y-98363145D01*
X179183249Y-98221781D01*
X179273659Y-97995102D01*
X179385892Y-97705134D01*
X179511430Y-97373903D01*
X179641757Y-97023436D01*
X179652858Y-96993257D01*
X179718223Y-96824723D01*
X179776464Y-96689393D01*
X179787994Y-96665830D01*
X179832298Y-96535503D01*
X179839213Y-96477490D01*
X179864370Y-96366144D01*
X179924968Y-96222435D01*
X179925910Y-96220609D01*
X179986177Y-96057977D01*
X180033073Y-95851809D01*
X180043001Y-95781084D01*
X180073505Y-95568091D01*
X180112835Y-95365886D01*
X180125400Y-95314794D01*
X180153418Y-95173611D01*
X180153644Y-95083531D01*
X180151124Y-95077853D01*
X180128453Y-95004541D01*
X180092843Y-94850232D01*
X180051458Y-94646302D01*
X180045665Y-94615867D01*
X180004939Y-94324187D01*
X180000971Y-94043537D01*
X180036713Y-93741755D01*
X180115114Y-93386682D01*
X180180459Y-93146584D01*
X180232525Y-92946006D01*
X180263757Y-92764921D01*
X180273695Y-92578384D01*
X180261881Y-92361452D01*
X180227854Y-92089180D01*
X180171156Y-91736623D01*
X180152495Y-91627864D01*
X180105031Y-91351260D01*
X180058064Y-91073996D01*
X180020041Y-90846019D01*
X180012539Y-90800224D01*
X179963168Y-90540834D01*
X179891627Y-90218616D01*
X179808389Y-89876477D01*
X179723928Y-89557321D01*
X179648715Y-89304053D01*
X179643318Y-89287640D01*
X179599028Y-89128254D01*
X179545109Y-88896253D01*
X179490604Y-88631640D01*
X179469109Y-88517078D01*
X179407499Y-88199103D01*
X179331329Y-87836771D01*
X179254636Y-87496241D01*
X179235766Y-87417062D01*
X179172208Y-87134932D01*
X179140994Y-86939118D01*
X179139715Y-86807197D01*
X179161550Y-86725913D01*
X179179750Y-86556437D01*
X179113483Y-86341959D01*
X178975850Y-86096745D01*
X178779952Y-85835060D01*
X178538889Y-85571167D01*
X178265763Y-85319332D01*
X177973674Y-85093820D01*
X177675723Y-84908895D01*
X177385010Y-84778823D01*
X177368042Y-84773060D01*
X177111380Y-84722055D01*
X176757682Y-84704870D01*
X176318894Y-84721347D01*
X175806965Y-84771328D01*
X175615393Y-84796337D01*
X175406058Y-84821166D01*
X175114793Y-84850071D01*
X174773610Y-84880146D01*
X174414522Y-84908489D01*
X174245505Y-84920604D01*
X173897028Y-84944911D01*
X173558573Y-84968963D01*
X173259635Y-84990631D01*
X173029706Y-85007790D01*
X172946966Y-85014244D01*
X172726904Y-85022561D01*
X172609302Y-85004619D01*
X172590224Y-84981992D01*
X172638822Y-84935409D01*
X172725932Y-84921123D01*
X172875799Y-84880636D01*
X172968953Y-84779263D01*
X172982092Y-84721347D01*
X173007756Y-84683400D01*
X173090810Y-84646580D01*
X173244563Y-84607658D01*
X173482324Y-84563405D01*
X173817401Y-84510591D01*
X173903033Y-84497866D01*
X174213032Y-84450851D01*
X174494687Y-84404662D01*
X174786480Y-84352523D01*
X175126891Y-84287657D01*
X175387078Y-84236525D01*
X175758267Y-84165200D01*
X176047356Y-84115902D01*
X176283483Y-84084997D01*
X176495783Y-84068855D01*
X176713393Y-84063842D01*
X176771853Y-84063901D01*
X177042451Y-84077713D01*
X177293323Y-84112311D01*
X177456797Y-84154295D01*
X177645632Y-84221590D01*
X177817028Y-84280037D01*
X177853461Y-84291862D01*
X178000424Y-84359298D01*
X178167667Y-84463654D01*
X178201321Y-84488398D01*
X178341190Y-84580726D01*
X178455437Y-84632013D01*
X178479197Y-84635729D01*
X178619565Y-84678926D01*
X178804711Y-84796349D01*
X179012481Y-84969750D01*
X179220718Y-85180878D01*
X179386622Y-85383199D01*
X179485396Y-85515870D01*
X179560499Y-85623123D01*
X179617257Y-85723621D01*
X179660996Y-85836024D01*
X179697042Y-85978993D01*
X179730720Y-86171188D01*
X179767357Y-86431271D01*
X179812279Y-86777902D01*
X179834914Y-86953907D01*
X179865057Y-87149471D01*
X179897490Y-87302086D01*
X179920215Y-87368035D01*
X179944831Y-87455514D01*
X179969679Y-87620210D01*
X179988171Y-87811963D01*
X180013957Y-88033266D01*
X180053236Y-88228573D01*
X180090785Y-88339632D01*
X180140830Y-88483556D01*
X180184356Y-88683270D01*
X180200267Y-88794245D01*
X180228542Y-88978475D01*
X180263498Y-89118782D01*
X180284522Y-89165256D01*
X180359574Y-89298890D01*
X180450227Y-89511827D01*
X180545239Y-89772413D01*
X180633367Y-90048994D01*
X180703367Y-90309918D01*
X180723340Y-90400673D01*
X180765414Y-90643434D01*
X180809077Y-90953162D01*
X180848076Y-91282939D01*
X180867904Y-91485168D01*
X180898655Y-91820145D01*
X180925837Y-92066245D01*
X180954477Y-92248426D01*
X180989601Y-92391645D01*
X181036233Y-92520857D01*
X181099400Y-92661020D01*
X181108561Y-92680244D01*
X181158622Y-92791732D01*
X181189808Y-92892530D01*
X181203490Y-93008395D01*
X181201036Y-93165083D01*
X181183816Y-93388351D01*
X181159587Y-93639705D01*
X181127998Y-93925492D01*
X181093783Y-94181465D01*
X181061066Y-94379640D01*
X181033993Y-94491980D01*
X180996885Y-94638712D01*
X180954117Y-94897953D01*
X180905892Y-95268204D01*
X180852413Y-95747967D01*
X180818654Y-96079999D01*
X180779265Y-96346085D01*
X180712057Y-96549562D01*
X180603779Y-96736404D01*
X180449085Y-96972325D01*
X180300140Y-97215913D01*
X180169855Y-97444143D01*
X180071140Y-97633993D01*
X180016905Y-97762439D01*
X180010449Y-97794507D01*
X179986663Y-97884481D01*
X179924292Y-98042010D01*
X179836818Y-98233057D01*
X179836452Y-98233809D01*
X179732219Y-98457253D01*
X179617494Y-98718029D01*
X179501573Y-98993106D01*
X179393751Y-99259451D01*
X179303324Y-99494031D01*
X179239586Y-99673815D01*
X179211833Y-99775769D01*
X179211348Y-99782723D01*
X179179788Y-99870051D01*
X179099298Y-100008582D01*
X179040112Y-100094986D01*
X178942572Y-100234887D01*
X178880558Y-100333928D01*
X178868876Y-100360662D01*
X178836330Y-100429564D01*
X178750023Y-100564544D01*
X178626952Y-100742095D01*
X178484113Y-100938711D01*
X178338504Y-101130886D01*
X178207121Y-101295115D01*
X178125806Y-101388314D01*
X178002687Y-101527161D01*
X177915833Y-101638591D01*
X177891110Y-101681208D01*
X177847222Y-101743927D01*
X177740062Y-101874990D01*
X177583544Y-102058635D01*
X177391585Y-102279099D01*
X177178099Y-102520618D01*
X176957002Y-102767430D01*
X176742207Y-103003772D01*
X176547631Y-103213881D01*
X176414494Y-103353919D01*
X176242592Y-103533065D01*
X176071072Y-103714172D01*
X175975415Y-103816649D01*
X175817354Y-103975633D01*
X175651119Y-104125446D01*
X175612997Y-104156628D01*
X175470564Y-104276093D01*
X175353809Y-104384954D01*
X175340177Y-104399213D01*
X175215703Y-104479351D01*
X175123646Y-104499100D01*
X175012137Y-104530181D01*
X174970418Y-104575516D01*
X174896181Y-104649002D01*
X174729936Y-104746963D01*
X174489043Y-104861142D01*
X174190858Y-104983284D01*
X173867060Y-105100285D01*
X173628908Y-105186571D01*
X173408717Y-105275689D01*
X173248227Y-105350576D01*
X173229096Y-105361115D01*
X173084892Y-105432403D01*
X172973008Y-105468385D01*
X172959998Y-105469437D01*
X172864972Y-105495347D01*
X172715505Y-105561052D01*
X172635058Y-105602671D01*
X172441822Y-105698816D01*
X172204420Y-105804690D01*
X172047977Y-105868424D01*
X171861501Y-105944594D01*
X171716774Y-106011049D01*
X171651280Y-106049124D01*
X171565556Y-106077817D01*
X171410917Y-106095062D01*
X171327221Y-106097302D01*
X171142042Y-106084509D01*
X171023893Y-106034831D01*
X170945141Y-105954606D01*
X170843657Y-105854342D01*
X170755811Y-105811918D01*
X170754953Y-105811909D01*
X170659129Y-105763492D01*
X170585299Y-105652295D01*
X170563693Y-105529395D01*
X170570780Y-105500714D01*
X170556882Y-105412359D01*
X170877864Y-105412359D01*
X170921300Y-105467779D01*
X170934943Y-105469437D01*
X170990363Y-105426002D01*
X170992022Y-105412359D01*
X170991292Y-105411428D01*
X171192373Y-105411428D01*
X171204774Y-105461066D01*
X171245507Y-105469437D01*
X171323786Y-105456201D01*
X171334494Y-105444267D01*
X171292668Y-105390989D01*
X171217408Y-105389801D01*
X171192373Y-105411428D01*
X170991292Y-105411428D01*
X170948586Y-105356939D01*
X170934943Y-105355280D01*
X170879523Y-105398715D01*
X170877864Y-105412359D01*
X170556882Y-105412359D01*
X170556329Y-105408845D01*
X170509651Y-105376995D01*
X170423675Y-105372224D01*
X170289955Y-105413170D01*
X170094422Y-105505827D01*
X169823008Y-105656189D01*
X169737203Y-105706103D01*
X169435828Y-105823680D01*
X169078941Y-105853440D01*
X168661030Y-105795168D01*
X168176585Y-105648649D01*
X168166629Y-105644983D01*
X167933841Y-105554954D01*
X167736088Y-105471054D01*
X167602189Y-105405859D01*
X167567303Y-105383474D01*
X167445067Y-105311299D01*
X167338988Y-105270855D01*
X167217807Y-105217466D01*
X167044823Y-105119259D01*
X166882359Y-105014173D01*
X166698163Y-104891375D01*
X166474698Y-104748142D01*
X166232659Y-104597026D01*
X165992745Y-104450584D01*
X165775651Y-104321369D01*
X165602074Y-104221935D01*
X165492710Y-104164838D01*
X165467655Y-104156028D01*
X165397300Y-104121403D01*
X165263212Y-104030232D01*
X165088378Y-103900208D01*
X164895785Y-103749026D01*
X164708419Y-103594382D01*
X164549266Y-103453969D01*
X164520528Y-103426942D01*
X164414023Y-103319607D01*
X164320370Y-103208047D01*
X164225988Y-103071398D01*
X164117293Y-102888798D01*
X163980703Y-102639382D01*
X163862201Y-102415729D01*
X163671237Y-102075764D01*
X163491208Y-101799164D01*
X163334742Y-101604832D01*
X163293807Y-101564973D01*
X163204463Y-101460207D01*
X163172247Y-101379467D01*
X163137334Y-101310065D01*
X163064968Y-101321463D01*
X163027928Y-101362398D01*
X162990517Y-101337842D01*
X162915325Y-101227406D01*
X162813020Y-101048575D01*
X162694272Y-100818834D01*
X162685815Y-100801694D01*
X162559019Y-100552974D01*
X162441172Y-100337955D01*
X162345647Y-100180045D01*
X162286916Y-100103537D01*
X162221989Y-100029843D01*
X162108775Y-99882309D01*
X161962232Y-99682127D01*
X161797321Y-99450493D01*
X161629002Y-99208600D01*
X161472235Y-98977641D01*
X161341980Y-98778811D01*
X161271783Y-98665377D01*
X161171319Y-98468209D01*
X161091690Y-98261723D01*
X161044311Y-98081232D01*
X161040594Y-97962049D01*
X161042548Y-97956160D01*
X161037713Y-97845430D01*
X161015310Y-97805901D01*
X160969599Y-97717834D01*
X160903575Y-97553481D01*
X160828644Y-97346217D01*
X160756210Y-97129421D01*
X160697678Y-96936469D01*
X160664452Y-96800737D01*
X160660786Y-96768367D01*
X160636493Y-96666809D01*
X160576881Y-96521706D01*
X160565510Y-96498445D01*
X160474521Y-96313694D01*
X160412585Y-96173421D01*
X160361727Y-96031036D01*
X160303974Y-95839949D01*
X160281437Y-95762070D01*
X160239484Y-95544209D01*
X160208032Y-95229615D01*
X160186967Y-94835219D01*
X160176174Y-94377952D01*
X160175655Y-93967640D01*
X160921851Y-93967640D01*
X160938685Y-94222204D01*
X160992246Y-94539872D01*
X161078146Y-94899848D01*
X161191999Y-95281335D01*
X161329416Y-95663538D01*
X161351760Y-95719569D01*
X161415174Y-95896331D01*
X161453992Y-96042929D01*
X161459723Y-96090580D01*
X161479951Y-96196112D01*
X161532751Y-96366879D01*
X161595401Y-96536628D01*
X161682270Y-96775036D01*
X161761017Y-97023470D01*
X161798741Y-97163756D01*
X161853740Y-97347422D01*
X161917474Y-97493486D01*
X161947778Y-97538513D01*
X162014151Y-97656333D01*
X162062654Y-97817530D01*
X162063953Y-97824643D01*
X162153057Y-98178599D01*
X162310139Y-98614139D01*
X162536421Y-99134477D01*
X162657950Y-99390561D01*
X162800696Y-99689272D01*
X162942037Y-99992611D01*
X163065420Y-100264614D01*
X163152535Y-100465096D01*
X163245881Y-100670916D01*
X163337697Y-100843577D01*
X163408874Y-100947314D01*
X163411764Y-100950264D01*
X163510927Y-101047505D01*
X163648947Y-101182115D01*
X163711427Y-101242869D01*
X163828942Y-101365945D01*
X163902160Y-101459816D01*
X163914269Y-101487863D01*
X163916362Y-101513367D01*
X163930526Y-101545749D01*
X163968586Y-101600274D01*
X164042369Y-101692205D01*
X164163700Y-101836807D01*
X164344405Y-102049344D01*
X164398195Y-102112476D01*
X164566365Y-102301746D01*
X164717083Y-102456835D01*
X164829561Y-102557084D01*
X164871403Y-102582775D01*
X164961937Y-102638827D01*
X165097344Y-102752834D01*
X165224297Y-102875933D01*
X165410297Y-103047557D01*
X165616726Y-103208404D01*
X165737743Y-103287233D01*
X165947378Y-103418012D01*
X166161822Y-103566711D01*
X166225954Y-103615136D01*
X166407740Y-103749506D01*
X166609236Y-103886835D01*
X166804462Y-104010818D01*
X166967435Y-104105148D01*
X167072176Y-104153516D01*
X167088680Y-104156628D01*
X167152767Y-104186027D01*
X167266439Y-104278725D01*
X167436997Y-104441475D01*
X167671745Y-104681029D01*
X167792507Y-104807508D01*
X167984805Y-105003823D01*
X168132615Y-105132562D01*
X168265792Y-105212783D01*
X168414190Y-105263541D01*
X168554566Y-105293957D01*
X168808888Y-105319439D01*
X169048741Y-105283679D01*
X169255274Y-105212127D01*
X169499492Y-105073200D01*
X169713480Y-104879015D01*
X169865251Y-104661975D01*
X169909286Y-104549648D01*
X169939369Y-104394201D01*
X169939806Y-104283695D01*
X169933708Y-104266968D01*
X169931138Y-104175929D01*
X169950680Y-104139858D01*
X169975594Y-104059559D01*
X170005850Y-103889238D01*
X170037878Y-103652682D01*
X170068112Y-103373677D01*
X170072331Y-103328988D01*
X170100165Y-103035964D01*
X170126530Y-102772183D01*
X170148617Y-102564883D01*
X170163614Y-102441303D01*
X170164623Y-102434554D01*
X170168698Y-102319431D01*
X170162825Y-102112694D01*
X170148684Y-101836295D01*
X170127957Y-101512183D01*
X170102323Y-101162310D01*
X170073463Y-100808625D01*
X170043058Y-100473079D01*
X170012787Y-100177622D01*
X169984333Y-99944205D01*
X169964349Y-99818651D01*
X169939617Y-99621141D01*
X169921194Y-99330804D01*
X169908937Y-98968788D01*
X169902708Y-98556242D01*
X169902365Y-98114314D01*
X169907766Y-97664151D01*
X169918772Y-97226901D01*
X169935242Y-96823714D01*
X169957035Y-96475737D01*
X169984010Y-96204117D01*
X169988628Y-96170342D01*
X170031039Y-95848125D01*
X170070816Y-95499550D01*
X170101643Y-95181695D01*
X170110689Y-95067066D01*
X170132126Y-94839563D01*
X170159173Y-94658377D01*
X170187220Y-94551560D01*
X170198027Y-94535720D01*
X170240756Y-94454329D01*
X170246346Y-94328307D01*
X170215743Y-94220638D01*
X170192921Y-94196404D01*
X170173881Y-94127931D01*
X170158386Y-93953607D01*
X170146770Y-93681692D01*
X170139371Y-93320447D01*
X170136524Y-92878133D01*
X170136508Y-92808878D01*
X170137706Y-92364341D01*
X170141875Y-92011736D01*
X170150612Y-91728842D01*
X170165517Y-91493443D01*
X170188187Y-91283319D01*
X170220220Y-91076252D01*
X170263214Y-90850024D01*
X170285092Y-90743145D01*
X170346611Y-90443222D01*
X170404052Y-90157491D01*
X170450896Y-89918724D01*
X170480161Y-89762334D01*
X170563485Y-89445189D01*
X170694744Y-89201355D01*
X170751349Y-89130673D01*
X170807629Y-89055434D01*
X170781485Y-89032124D01*
X170744014Y-89030786D01*
X170736866Y-89026505D01*
X170888805Y-89026505D01*
X170916358Y-89078551D01*
X170963482Y-89087864D01*
X171034521Y-89058903D01*
X171038160Y-89026505D01*
X170979233Y-88967533D01*
X170963482Y-88965145D01*
X170896556Y-89009582D01*
X170888805Y-89026505D01*
X170736866Y-89026505D01*
X170664963Y-88983444D01*
X170649550Y-88916628D01*
X170620077Y-88819599D01*
X170555549Y-88815328D01*
X170493568Y-88902359D01*
X170420348Y-89015422D01*
X170338393Y-89097556D01*
X170240563Y-89159310D01*
X170165664Y-89140170D01*
X170132987Y-89113309D01*
X170056153Y-89067012D01*
X169985136Y-89105653D01*
X169948040Y-89146427D01*
X169845005Y-89223843D01*
X169688591Y-89266802D01*
X169463994Y-89276153D01*
X169156412Y-89252746D01*
X168835515Y-89210243D01*
X168622263Y-89167760D01*
X168444300Y-89099790D01*
X168257093Y-88985994D01*
X168112003Y-88879830D01*
X167921767Y-88720726D01*
X167757320Y-88557186D01*
X167650796Y-88421553D01*
X167642892Y-88407684D01*
X167541823Y-88217819D01*
X167437350Y-88020745D01*
X167430684Y-88008134D01*
X167315098Y-87676943D01*
X167303235Y-87546741D01*
X172418988Y-87546741D01*
X172466938Y-87592668D01*
X172536514Y-87603819D01*
X172615438Y-87581846D01*
X172618763Y-87546741D01*
X172536178Y-87494221D01*
X172501237Y-87489662D01*
X172427466Y-87521576D01*
X172418988Y-87546741D01*
X167303235Y-87546741D01*
X167288246Y-87382242D01*
X170478314Y-87382242D01*
X170513482Y-87413188D01*
X170535393Y-87404044D01*
X170590340Y-87328431D01*
X170592471Y-87311689D01*
X170557303Y-87280743D01*
X170535393Y-87289887D01*
X170480445Y-87365500D01*
X170478314Y-87382242D01*
X167288246Y-87382242D01*
X167280704Y-87299464D01*
X167313602Y-86994980D01*
X170782733Y-86994980D01*
X170790569Y-87028914D01*
X170820786Y-87033033D01*
X170867768Y-87012149D01*
X170858838Y-86994980D01*
X170791099Y-86988149D01*
X170782733Y-86994980D01*
X167313602Y-86994980D01*
X167322846Y-86909424D01*
X171591348Y-86909424D01*
X171734044Y-86994171D01*
X171876356Y-87069071D01*
X171946393Y-87076798D01*
X171951948Y-87061572D01*
X172190673Y-87061572D01*
X172219213Y-87090111D01*
X172247752Y-87061572D01*
X172219213Y-87033033D01*
X172190673Y-87061572D01*
X171951948Y-87061572D01*
X171962359Y-87033033D01*
X171945608Y-87004493D01*
X172418988Y-87004493D01*
X172447527Y-87033033D01*
X172476067Y-87004493D01*
X172447527Y-86975954D01*
X172418988Y-87004493D01*
X171945608Y-87004493D01*
X171929407Y-86976891D01*
X171919550Y-86975175D01*
X171835973Y-86962998D01*
X171734044Y-86941910D01*
X171591348Y-86909424D01*
X167322846Y-86909424D01*
X167323305Y-86905174D01*
X167344033Y-86836626D01*
X172304831Y-86836626D01*
X172332502Y-86895706D01*
X172361909Y-86890336D01*
X172416811Y-86817363D01*
X172418988Y-86801350D01*
X172375452Y-86749177D01*
X172361909Y-86747640D01*
X172311816Y-86794099D01*
X172304831Y-86836626D01*
X167344033Y-86836626D01*
X167360148Y-86783332D01*
X171897359Y-86783332D01*
X171973173Y-86793214D01*
X171990898Y-86793591D01*
X172088378Y-86787421D01*
X172096961Y-86769553D01*
X172091872Y-86767278D01*
X171978560Y-86755987D01*
X171920636Y-86765163D01*
X171897359Y-86783332D01*
X167360148Y-86783332D01*
X167409984Y-86618521D01*
X172502555Y-86618521D01*
X172512504Y-86662022D01*
X172588277Y-86737944D01*
X172631859Y-86747640D01*
X172687417Y-86732136D01*
X172652563Y-86668418D01*
X172647303Y-86662022D01*
X172614866Y-86633482D01*
X172761460Y-86633482D01*
X172804895Y-86688902D01*
X172818539Y-86690561D01*
X172873959Y-86647125D01*
X172875617Y-86633482D01*
X172832182Y-86578062D01*
X172818539Y-86576404D01*
X172763119Y-86619839D01*
X172761460Y-86633482D01*
X172614866Y-86633482D01*
X172565809Y-86590319D01*
X172527948Y-86576404D01*
X172502555Y-86618521D01*
X167409984Y-86618521D01*
X167431350Y-86547864D01*
X170192921Y-86547864D01*
X170221460Y-86576404D01*
X170249999Y-86547864D01*
X170221460Y-86519325D01*
X171990898Y-86519325D01*
X171995424Y-86571922D01*
X172016069Y-86576404D01*
X172074193Y-86534970D01*
X172076516Y-86519325D01*
X172057042Y-86463730D01*
X172051345Y-86462246D01*
X172002613Y-86502243D01*
X171990898Y-86519325D01*
X170221460Y-86519325D01*
X170192921Y-86547864D01*
X167431350Y-86547864D01*
X167438702Y-86523550D01*
X167622699Y-86184070D01*
X167628290Y-86176853D01*
X170192921Y-86176853D01*
X170213805Y-86223835D01*
X170230973Y-86214905D01*
X170237804Y-86147166D01*
X170230973Y-86138801D01*
X170197040Y-86146636D01*
X170192921Y-86176853D01*
X167628290Y-86176853D01*
X167705679Y-86076965D01*
X167715600Y-86068019D01*
X170395986Y-86068019D01*
X170458428Y-86107158D01*
X170544493Y-86121330D01*
X170592172Y-86101106D01*
X170592471Y-86097892D01*
X170545405Y-86067913D01*
X170478235Y-86046137D01*
X170400986Y-86042378D01*
X170395986Y-86068019D01*
X167715600Y-86068019D01*
X167808771Y-85984008D01*
X167891185Y-85948538D01*
X167958862Y-85902895D01*
X167966853Y-85866157D01*
X167967081Y-85865692D01*
X169189237Y-85865692D01*
X169194448Y-85892114D01*
X169255498Y-85939430D01*
X169320921Y-85947370D01*
X169336741Y-85926106D01*
X169291968Y-85889447D01*
X169248158Y-85869681D01*
X169189237Y-85865692D01*
X167967081Y-85865692D01*
X168014541Y-85768966D01*
X168128277Y-85673874D01*
X168264068Y-85613365D01*
X168319085Y-85606066D01*
X168424689Y-85569242D01*
X168554090Y-85479021D01*
X168571614Y-85463332D01*
X168688743Y-85372871D01*
X168769728Y-85364372D01*
X168804249Y-85385848D01*
X168888718Y-85430834D01*
X168915720Y-85394911D01*
X168879581Y-85298899D01*
X168842912Y-85243913D01*
X168695681Y-85118131D01*
X168475920Y-85049202D01*
X168168631Y-85032648D01*
X168138089Y-85033509D01*
X168033808Y-85036729D01*
X167934031Y-85038771D01*
X167823651Y-85039393D01*
X167687561Y-85038349D01*
X167510652Y-85035396D01*
X167277816Y-85030289D01*
X166973946Y-85022784D01*
X166583933Y-85012636D01*
X166172589Y-85001729D01*
X165662904Y-84991015D01*
X165259741Y-84989057D01*
X164955787Y-84996000D01*
X164743734Y-85011992D01*
X164631466Y-85032471D01*
X164295093Y-85132275D01*
X164038435Y-85222421D01*
X163829550Y-85317019D01*
X163636498Y-85430178D01*
X163468004Y-85546428D01*
X163274572Y-85680132D01*
X163103096Y-85788136D01*
X162984451Y-85851257D01*
X162967166Y-85857627D01*
X162864662Y-85931441D01*
X162726157Y-86094458D01*
X162562565Y-86331810D01*
X162384802Y-86628631D01*
X162334668Y-86719100D01*
X162227829Y-86876147D01*
X162127357Y-86934378D01*
X162096091Y-86934559D01*
X161996659Y-86974337D01*
X161910002Y-87093049D01*
X161849150Y-87255473D01*
X161827133Y-87426386D01*
X161856980Y-87570565D01*
X161859219Y-87574872D01*
X161897355Y-87677004D01*
X161902876Y-87804105D01*
X161875857Y-87992563D01*
X161860254Y-88072249D01*
X161785159Y-88420141D01*
X161698192Y-88787626D01*
X161606354Y-89148140D01*
X161516647Y-89475120D01*
X161436072Y-89742002D01*
X161374434Y-89915505D01*
X161346775Y-90026289D01*
X161313205Y-90229170D01*
X161276651Y-90502429D01*
X161240040Y-90824348D01*
X161209014Y-91142696D01*
X161167489Y-91603830D01*
X161134100Y-91969228D01*
X161106994Y-92256876D01*
X161084313Y-92484757D01*
X161064202Y-92670856D01*
X161044804Y-92833155D01*
X161024265Y-92989639D01*
X161001734Y-93151193D01*
X160977591Y-93355324D01*
X160967652Y-93514495D01*
X160973927Y-93595635D01*
X160974666Y-93596992D01*
X160977734Y-93679959D01*
X160946132Y-93796976D01*
X160921851Y-93967640D01*
X160175655Y-93967640D01*
X160175537Y-93874745D01*
X160184941Y-93342528D01*
X160204272Y-92798230D01*
X160233413Y-92258784D01*
X160272250Y-91741118D01*
X160311504Y-91342471D01*
X160367995Y-90839011D01*
X160414990Y-90434940D01*
X160454798Y-90116101D01*
X160489726Y-89868335D01*
X160522079Y-89677487D01*
X160554167Y-89529399D01*
X160588296Y-89409914D01*
X160626773Y-89304875D01*
X160654130Y-89240098D01*
X160723600Y-89062641D01*
X160767280Y-88914835D01*
X160774943Y-88861372D01*
X160793577Y-88734557D01*
X160842224Y-88538532D01*
X160910003Y-88310669D01*
X160986031Y-88088338D01*
X161039079Y-87954270D01*
X161108629Y-87818252D01*
X161221950Y-87623196D01*
X161358336Y-87404270D01*
X161406145Y-87330855D01*
X161550380Y-87091108D01*
X161678993Y-86840358D01*
X161768984Y-86624395D01*
X161782854Y-86580853D01*
X161943169Y-86116763D01*
X162143773Y-85717885D01*
X162403232Y-85356974D01*
X162740113Y-85006787D01*
X163023414Y-84760451D01*
X163385255Y-84487558D01*
X163720647Y-84295077D01*
X164064905Y-84167415D01*
X164453340Y-84088976D01*
X164579757Y-84073158D01*
X164906312Y-84053900D01*
X165254151Y-84062058D01*
G37*
D12*
%TO.C,C1*%
X150445225Y-96775000D02*
X150945225Y-96775000D01*
X150695225Y-96525000D02*
X150695225Y-97025000D01*
X153250000Y-95670000D02*
X153250000Y-97210000D01*
X153250000Y-99290000D02*
X153250000Y-100830000D01*
X153290000Y-95670000D02*
X153290000Y-97210000D01*
X153290000Y-99290000D02*
X153290000Y-100830000D01*
X153330000Y-95671000D02*
X153330000Y-97210000D01*
X153330000Y-99290000D02*
X153330000Y-100829000D01*
X153370000Y-95673000D02*
X153370000Y-97210000D01*
X153370000Y-99290000D02*
X153370000Y-100827000D01*
X153410000Y-95675000D02*
X153410000Y-97210000D01*
X153410000Y-99290000D02*
X153410000Y-100825000D01*
X153450000Y-95678000D02*
X153450000Y-97210000D01*
X153450000Y-99290000D02*
X153450000Y-100822000D01*
X153490000Y-95681000D02*
X153490000Y-97210000D01*
X153490000Y-99290000D02*
X153490000Y-100819000D01*
X153530000Y-95685000D02*
X153530000Y-97210000D01*
X153530000Y-99290000D02*
X153530000Y-100815000D01*
X153570000Y-95690000D02*
X153570000Y-97210000D01*
X153570000Y-99290000D02*
X153570000Y-100810000D01*
X153610000Y-95695000D02*
X153610000Y-97210000D01*
X153610000Y-99290000D02*
X153610000Y-100805000D01*
X153650000Y-95701000D02*
X153650000Y-97210000D01*
X153650000Y-99290000D02*
X153650000Y-100799000D01*
X153690000Y-95707000D02*
X153690000Y-97210000D01*
X153690000Y-99290000D02*
X153690000Y-100793000D01*
X153730000Y-95714000D02*
X153730000Y-97210000D01*
X153730000Y-99290000D02*
X153730000Y-100786000D01*
X153770000Y-95722000D02*
X153770000Y-97210000D01*
X153770000Y-99290000D02*
X153770000Y-100778000D01*
X153810000Y-95731000D02*
X153810000Y-97210000D01*
X153810000Y-99290000D02*
X153810000Y-100769000D01*
X153850000Y-95740000D02*
X153850000Y-97210000D01*
X153850000Y-99290000D02*
X153850000Y-100760000D01*
X153890000Y-95749000D02*
X153890000Y-97210000D01*
X153890000Y-99290000D02*
X153890000Y-100751000D01*
X153930000Y-95760000D02*
X153930000Y-97210000D01*
X153930000Y-99290000D02*
X153930000Y-100740000D01*
X153970000Y-95771000D02*
X153970000Y-97210000D01*
X153970000Y-99290000D02*
X153970000Y-100729000D01*
X154010000Y-95783000D02*
X154010000Y-97210000D01*
X154010000Y-99290000D02*
X154010000Y-100717000D01*
X154050000Y-95795000D02*
X154050000Y-97210000D01*
X154050000Y-99290000D02*
X154050000Y-100705000D01*
X154090000Y-95808000D02*
X154090000Y-97210000D01*
X154090000Y-99290000D02*
X154090000Y-100692000D01*
X154130000Y-95822000D02*
X154130000Y-97210000D01*
X154130000Y-99290000D02*
X154130000Y-100678000D01*
X154170000Y-95837000D02*
X154170000Y-97210000D01*
X154170000Y-99290000D02*
X154170000Y-100663000D01*
X154210000Y-95852000D02*
X154210000Y-97210000D01*
X154210000Y-99290000D02*
X154210000Y-100648000D01*
X154250000Y-95868000D02*
X154250000Y-97210000D01*
X154250000Y-99290000D02*
X154250000Y-100632000D01*
X154290000Y-95885000D02*
X154290000Y-97210000D01*
X154290000Y-99290000D02*
X154290000Y-100615000D01*
X154330000Y-95903000D02*
X154330000Y-97210000D01*
X154330000Y-99290000D02*
X154330000Y-100597000D01*
X154370000Y-95921000D02*
X154370000Y-97210000D01*
X154370000Y-99290000D02*
X154370000Y-100579000D01*
X154410000Y-95941000D02*
X154410000Y-97210000D01*
X154410000Y-99290000D02*
X154410000Y-100559000D01*
X154450000Y-95961000D02*
X154450000Y-97210000D01*
X154450000Y-99290000D02*
X154450000Y-100539000D01*
X154490000Y-95982000D02*
X154490000Y-97210000D01*
X154490000Y-99290000D02*
X154490000Y-100518000D01*
X154530000Y-96004000D02*
X154530000Y-97210000D01*
X154530000Y-99290000D02*
X154530000Y-100496000D01*
X154570000Y-96027000D02*
X154570000Y-97210000D01*
X154570000Y-99290000D02*
X154570000Y-100473000D01*
X154610000Y-96051000D02*
X154610000Y-97210000D01*
X154610000Y-99290000D02*
X154610000Y-100449000D01*
X154650000Y-96075000D02*
X154650000Y-97210000D01*
X154650000Y-99290000D02*
X154650000Y-100425000D01*
X154690000Y-96101000D02*
X154690000Y-97210000D01*
X154690000Y-99290000D02*
X154690000Y-100399000D01*
X154730000Y-96128000D02*
X154730000Y-97210000D01*
X154730000Y-99290000D02*
X154730000Y-100372000D01*
X154770000Y-96156000D02*
X154770000Y-97210000D01*
X154770000Y-99290000D02*
X154770000Y-100344000D01*
X154810000Y-96185000D02*
X154810000Y-97210000D01*
X154810000Y-99290000D02*
X154810000Y-100315000D01*
X154850000Y-96215000D02*
X154850000Y-97210000D01*
X154850000Y-99290000D02*
X154850000Y-100285000D01*
X154890000Y-96247000D02*
X154890000Y-97210000D01*
X154890000Y-99290000D02*
X154890000Y-100253000D01*
X154930000Y-96280000D02*
X154930000Y-97210000D01*
X154930000Y-99290000D02*
X154930000Y-100220000D01*
X154970000Y-96314000D02*
X154970000Y-97210000D01*
X154970000Y-99290000D02*
X154970000Y-100186000D01*
X155010000Y-96349000D02*
X155010000Y-97210000D01*
X155010000Y-99290000D02*
X155010000Y-100151000D01*
X155050000Y-96386000D02*
X155050000Y-97210000D01*
X155050000Y-99290000D02*
X155050000Y-100114000D01*
X155090000Y-96425000D02*
X155090000Y-97210000D01*
X155090000Y-99290000D02*
X155090000Y-100075000D01*
X155130000Y-96465000D02*
X155130000Y-97210000D01*
X155130000Y-99290000D02*
X155130000Y-100035000D01*
X155170000Y-96507000D02*
X155170000Y-97210000D01*
X155170000Y-99290000D02*
X155170000Y-99993000D01*
X155210000Y-96551000D02*
X155210000Y-97210000D01*
X155210000Y-99290000D02*
X155210000Y-99949000D01*
X155250000Y-96598000D02*
X155250000Y-97210000D01*
X155250000Y-99290000D02*
X155250000Y-99902000D01*
X155290000Y-96646000D02*
X155290000Y-99854000D01*
X155330000Y-96697000D02*
X155330000Y-99803000D01*
X155370000Y-96751000D02*
X155370000Y-99749000D01*
X155410000Y-96807000D02*
X155410000Y-99693000D01*
X155450000Y-96867000D02*
X155450000Y-99633000D01*
X155490000Y-96931000D02*
X155490000Y-99569000D01*
X155530000Y-96999000D02*
X155530000Y-99501000D01*
X155570000Y-97073000D02*
X155570000Y-99427000D01*
X155610000Y-97152000D02*
X155610000Y-99348000D01*
X155650000Y-97239000D02*
X155650000Y-99261000D01*
X155690000Y-97336000D02*
X155690000Y-99164000D01*
X155730000Y-97445000D02*
X155730000Y-99055000D01*
X155770000Y-97573000D02*
X155770000Y-98927000D01*
X155810000Y-97733000D02*
X155810000Y-98767000D01*
X155850000Y-97967000D02*
X155850000Y-98533000D01*
X155870000Y-98250000D02*
G75*
G02*
X150630000Y-98250000I-2620000J0D01*
G01*
X150630000Y-98250000D02*
G75*
G02*
X155870000Y-98250000I2620000J0D01*
G01*
%TO.C,D7*%
X174440000Y-72764000D02*
X174440000Y-72920000D01*
X174440000Y-75080000D02*
X174440000Y-75236000D01*
X174440000Y-72764484D02*
G75*
G02*
X177671437Y-72920000I1560000J-1235516D01*
G01*
X174959039Y-72920000D02*
G75*
G02*
X177040961Y-72920000I1040961J-1080000D01*
G01*
X177040961Y-75080000D02*
G75*
G02*
X174959039Y-75080000I-1040961J1080000D01*
G01*
X177671437Y-75080000D02*
G75*
G02*
X174440000Y-75235516I-1671437J1080000D01*
G01*
%TO.C,R1*%
X146630000Y-83980000D02*
X146960000Y-83980000D01*
X146630000Y-90520000D02*
X146630000Y-83980000D01*
X146960000Y-90520000D02*
X146630000Y-90520000D01*
X149040000Y-90520000D02*
X149370000Y-90520000D01*
X149370000Y-83980000D02*
X149040000Y-83980000D01*
X149370000Y-90520000D02*
X149370000Y-83980000D01*
%TO.C,RVrr1*%
X138500000Y-95890000D02*
X138500000Y-101110000D01*
X138500000Y-95890000D02*
X140620000Y-95890000D01*
X138500000Y-101110000D02*
X148420000Y-101110000D01*
X141320000Y-95890000D02*
X148420000Y-95890000D01*
X148420000Y-95890000D02*
X148420000Y-101110000D01*
X140920000Y-95890000D02*
X140680000Y-95560000D01*
X141160000Y-95560000D01*
X140920000Y-95890000D01*
G36*
X140920000Y-95890000D02*
G01*
X140680000Y-95560000D01*
X141160000Y-95560000D01*
X140920000Y-95890000D01*
G37*
%TD*%
M02*
